<svg version="1.1" viewBox="0.0 0.0 350.0 150.0" fill="none" stroke="none" stroke-linecap="square" stroke-miterlimit="10" xmlns:xlink="http://www.w3.org/1999/xlink" xmlns="http://www.w3.org/2000/svg"><clipPath id="gd0975cc0b2_1_12.0"><path d="m0 0l350.0 0l0 150.0l-350.0 0l0 -150.0z" clip-rule="nonzero"/></clipPath><g clip-path="url(#gd0975cc0b2_1_12.0)"><path fill="#ffffff" fill-opacity="0.0" d="m0 0l350.0 0l0 150.0l-350.0 0z" fill-rule="evenodd"/><path fill="#000000" fill-opacity="0.0" d="m11.139108 19.440945l333.48032 0l0 85.00787l-333.48032 0z" fill-rule="evenodd"/><path fill="#000000" d="m53.326607 77.909195q-0.390625 0.921875 -1.625 1.546875q-0.546875 -0.3125 -0.984375 -0.734375q-0.421875 -0.421875 -1.03125 -0.65625q-0.46875 -0.9375 -0.703125 -1.125q-0.234375 -0.1875 -0.546875 -0.265625q-0.453125 -0.390625 -0.765625 -0.9375q-0.3125 -0.546875 -0.703125 -0.921875q-0.15625 -0.078125 -0.578125 -0.5q-0.421875 -0.4375 -0.890625 -0.890625q-0.46875 -0.46875 -0.859375 -0.890625q-0.375 -0.4375 -0.453125 -0.4375q-0.703125 -0.46875 -1.25 -1.0q-0.140625 -0.234375 -0.34375 -0.5q-0.1875 -0.28125 -0.34375 -0.4375q-0.625 -0.234375 -1.015625 -0.65625q-0.375 -0.421875 -0.734375 -0.96875q-0.34375 -0.546875 -0.78125 -0.96875q-0.421875 -0.421875 -0.953125 -0.65625q-0.546875 -0.78125 -1.328125 -1.28125q-0.765625 -0.5 -1.3125 -1.203125q-0.46875 -0.53125 -1.015625 -1.03125q-0.53125 -0.515625 -1.15625 -0.984375q-0.296875 -0.453125 -1.0 -1.34375q-0.703125 -0.890625 -1.234375 -0.96875q-0.078125 1.78125 -0.125 3.5625q-0.03125 1.78125 -0.109375 3.5625q0 0.921875 0.03125 1.9375q0.046875 1.0 -0.03125 2.015625q-0.078125 0.375 -0.203125 0.8125q-0.109375 0.421875 -0.109375 0.890625q0 0.921875 -0.125 1.203125q-0.109375 0.265625 -0.1875 0.5q-0.234375 0.765625 -0.4375 1.890625q-0.1875 1.125 -0.796875 1.75q-0.859375 0.078125 -1.328125 -0.15625q-0.15625 0.15625 -0.3125 0.3125q-0.140625 0.15625 -0.453125 0.15625q-0.15625 -0.15625 -0.515625 -0.28125q-0.34375 -0.109375 -0.5 -0.109375q-0.375 0 -0.8125 0.15625q-0.421875 0.15625 -0.8125 0.15625q-0.390625 0 -0.65625 -0.203125q-0.265625 -0.1875 -0.65625 -0.1875q-0.234375 0 -0.546875 0.234375q-0.3125 0.234375 -0.609375 0.234375q-0.390625 0 -0.671875 -0.125q-0.265625 -0.109375 -0.578125 -0.1875q0 -0.234375 0.03125 -0.46875q0.046875 -0.234375 -0.03125 -0.46875l-0.3125 -1.9375q0.078125 -0.53125 0.1875 -1.078125q0.125 -0.546875 0.203125 -1.015625q0.078125 -1.234375 0.109375 -2.359375q0.046875 -1.125 0.046875 -2.28125q0 -2.015625 -0.046875 -3.953125q-0.03125 -1.9375 0.046875 -3.953125q0.078125 -0.6875 0.1875 -1.421875q0.125 -0.75 0.125 -1.4375q0 -2.015625 0.234375 -3.953125q0.234375 -1.9375 0.390625 -3.953125q0.15625 -1.546875 0.15625 -3.015625q0 -1.46875 0 -2.953125q0 -2.859375 -0.078125 -5.6875q-0.078125 -2.828125 -0.078125 -5.625q0 -0.921875 0.078125 -2.5q0.078125 -1.59375 -0.15625 -2.453125q0.078125 -2.25 0 -4.40625q0.3125 -0.15625 0.34375 -0.46875q0.03125 -0.3125 0.03125 -0.625l0 -1.078125q0.703125 -0.78125 1.171875 -0.78125q0.390625 0 0.765625 0.078125q0.390625 0.078125 0.78125 0.3125q1.0 -0.234375 1.3125 -0.078125q0.3125 0.15625 0.703125 0.3125q0.625 -0.078125 0.84375 -0.546875q0.859375 0.15625 0.859375 0.390625q0 0.234375 0.15625 0.46875q0.765625 0.078125 1.03125 -0.109375q0.28125 -0.203125 0.671875 -0.28125q0.703125 0.15625 0.921875 0.390625q0 0.453125 0.234375 1.046875q0.234375 0.578125 0.234375 1.5q0 0.703125 -0.078125 1.359375q-0.078125 0.65625 -0.078125 1.28125q0 1.078125 0.078125 2.09375q0.078125 1.0 0.078125 2.09375q0 0.296875 -0.046875 0.578125q-0.03125 0.265625 -0.03125 0.578125q0 2.9375 0.15625 5.96875q0.15625 3.015625 0.15625 6.03125q0 0.15625 -0.078125 0.4375q-0.078125 0.265625 0.078125 0.421875q1.3125 -1.390625 2.234375 -2.984375q0.9375 -1.59375 2.03125 -3.140625q0.921875 -1.15625 1.890625 -2.78125q0.96875 -1.625 1.671875 -2.953125q0.3125 -0.453125 0.53125 -0.921875q0.234375 -0.46875 0.546875 -0.9375q0.15625 -0.375 0.421875 -0.71875q0.28125 -0.359375 0.4375 -0.828125q0.390625 -0.609375 0.6875 -1.1875q0.3125 -0.59375 0.703125 -1.203125q0.390625 -0.625 0.8125 -1.125q0.421875 -0.515625 0.8125 -1.046875q0.625 -1.015625 1.3125 -2.0625q0.703125 -1.046875 1.25 -2.125q0.765625 -0.390625 1.390625 -0.890625q0.625 -0.5 1.3125 -0.890625q0.78125 1.0 1.125 1.390625q0.359375 0.390625 0.96875 0.46875q0.15625 0.234375 0.1875 0.546875q0.046875 0.296875 0.28125 0.453125q0.921875 0.078125 1.078125 0q0.234375 0.390625 0.65625 0.59375q0.4375 0.1875 0.828125 0.34375q0 0.234375 0 0.5q0 0.265625 0.078125 0.421875q0.921875 0.390625 0.921875 1.484375q-1.46875 2.625 -3.21875 5.0q-1.734375 2.359375 -3.0625 5.0625q-0.375 0.859375 -0.890625 1.640625q-0.5 0.765625 -0.8125 1.609375q-0.53125 0.546875 -0.84375 1.125q-0.3125 0.578125 -0.78125 1.125q-0.3125 0.390625 -0.625 0.8125q-0.296875 0.421875 -0.609375 0.8125q-0.625 0.859375 -1.125 1.75q-0.5 0.890625 -1.203125 1.734375q-0.46875 0.78125 -1.078125 1.5625q-0.625 0.84375 -1.046875 1.890625q-0.421875 1.046875 -1.046875 1.890625q-0.625 0.9375 -0.671875 1.359375q-0.03125 0.421875 -0.421875 1.4375q0.546875 0.84375 1.234375 1.546875q0.703125 0.703125 1.484375 1.3125q0.625 0.859375 1.4375 1.515625q0.8125 0.65625 1.65625 1.4375q0.3125 0.3125 0.546875 0.578125q0.234375 0.265625 0.546875 0.5q0.84375 0.9375 2.046875 1.796875q1.203125 0.84375 2.28125 1.609375q0.859375 0.78125 2.140625 1.90625q1.28125 1.125 2.671875 2.40625q1.390625 1.265625 2.46875 2.390625q1.09375 1.125 1.09375 1.4375q-0.390625 1.15625 -0.890625 1.4375q-0.5 0.265625 -0.734375 0.8125q-0.46875 0.15625 -0.46875 0.3125q0 0.140625 -0.234375 0.53125q-0.546875 0.390625 -0.9375 0.90625q-0.375 0.5 -0.765625 0.953125q-0.3125 0.15625 -0.59375 0.28125q-0.265625 0.109375 -0.40625 0.421875l-0.546875 -0.078125zm25.562973 -58.796875q0.390625 1.390625 0.765625 2.75q0.390625 1.359375 0.9375 2.671875q1.15625 0.15625 1.421875 0.234375q0.28125 0.078125 0.671875 0.234375q0.84375 2.015625 1.03125 4.296875q0.203125 2.28125 0.59375 4.453125q1.46875 1.9375 2.125 4.140625q0.671875 2.203125 1.515625 4.453125q0.234375 0.78125 0.3125 0.984375q0.078125 0.1875 0.078125 0.328125q0.46875 1.328125 0.921875 2.71875q0.46875 1.390625 1.015625 2.71875q0.234375 0.6875 0.5 1.34375q0.265625 0.65625 0.5 1.28125q0.234375 0.78125 0.421875 1.59375q0.203125 0.8125 0.4375 1.578125q0.53125 1.5625 1.15625 3.109375q0.625 1.546875 1.234375 3.09375q0.234375 0.546875 0.890625 2.40625q0.671875 1.859375 1.359375 3.90625q0.703125 2.046875 1.28125 3.796875q0.578125 1.75 0.578125 2.125q0 0.625 0.109375 1.28125q0.125 0.65625 0.203125 1.359375q-0.3125 0.78125 -0.78125 0.859375q-0.453125 0.0625 -0.84375 -0.078125q-0.390625 0.140625 -0.734375 0.296875q-0.34375 0.15625 -0.65625 0.3125q-0.234375 0.078125 -0.390625 0.234375q-0.15625 0.15625 -0.390625 0.15625q-0.921875 0 -1.203125 0.1875q-0.265625 0.203125 -0.8125 0.203125q-0.6875 -0.234375 -0.890625 -0.046875q-0.1875 0.203125 -0.34375 0.28125q-0.3125 0.15625 -0.703125 0.15625q-0.390625 0 -0.765625 0.078125q-0.15625 -0.3125 -0.28125 -0.625q-0.109375 -0.3125 -0.34375 -0.703125q-0.859375 -1.234375 -1.203125 -2.390625q-0.34375 -1.171875 -0.578125 -1.859375q-0.390625 -0.859375 -0.65625 -1.703125q-0.265625 -0.859375 -0.65625 -1.71875q-0.46875 0.15625 -0.859375 0.359375q-0.390625 0.1875 -0.609375 0.5q-0.9375 0 -0.9375 0.234375q0 0.234375 -0.15625 0.46875q-0.46875 0.140625 -0.734375 0.296875q-0.265625 0.15625 -0.890625 0.078125q-0.390625 0.390625 -0.78125 0.671875q-0.375 0.265625 -1.0 0.34375q-0.625 0.609375 -1.28125 1.046875q-0.65625 0.421875 -1.515625 0.1875q-1.078125 0.234375 -2.171875 0.4375q-1.078125 0.1875 -2.15625 0.1875q-1.25 -0.390625 -1.5625 -0.703125q-0.296875 -0.3125 -0.921875 -0.3125q0.078125 -1.078125 -0.46875 -1.46875q0 -0.234375 0.03125 -0.734375q0.046875 -0.5 0.203125 -0.65625q1.015625 -0.46875 1.171875 -1.0q0.15625 -0.546875 0.84375 -0.703125q0.15625 -0.3125 0.34375 -0.578125q0.203125 -0.28125 0.359375 -0.59375q0.390625 -0.140625 0.65625 -0.21875q0.265625 -0.078125 0.421875 -0.46875q0.390625 0 1.15625 -0.5q0.78125 -0.515625 1.015625 -0.8125q0.625 -0.234375 0.78125 -0.421875q0.15625 -0.203125 0.375 -0.359375q0.78125 0.078125 1.015625 -0.15625q0.625 0.3125 1.390625 0.3125q0.3125 0 0.546875 -0.03125q0.234375 -0.046875 0.546875 -0.046875q0.609375 -0.625 1.578125 -0.8125q0.96875 -0.203125 1.59375 -0.8125q-0.234375 -0.625 -0.390625 -1.515625q-0.15625 -0.890625 -0.546875 -1.4375q-0.15625 -1.0 -0.5 -1.921875q-0.34375 -0.9375 -0.578125 -1.796875q-0.859375 -3.25 -2.015625 -6.34375q-1.15625 -3.09375 -1.9375 -6.359375q-0.15625 -0.375 -0.359375 -0.796875q-0.1875 -0.4375 -0.34375 -0.828125q-0.375 0.9375 -0.375 1.0625q0 0.109375 -0.15625 0.25q-0.078125 0.390625 -0.15625 0.671875q-0.078125 0.265625 -0.234375 0.65625q-0.234375 0.609375 -0.4375 1.359375q-0.1875 0.734375 -0.34375 1.34375q-0.375 1.328125 -0.6875 2.765625q-0.3125 1.421875 -0.703125 2.8125q-0.765625 2.40625 -1.59375 4.765625q-0.8125 2.359375 -1.578125 4.765625q-0.15625 1.09375 -0.359375 1.671875q-0.1875 0.578125 -0.390625 1.15625q-0.1875 0.578125 -0.3125 1.125q-0.109375 0.546875 -0.109375 0.859375q-1.078125 2.46875 -1.8125 5.03125q-0.734375 2.546875 -1.828125 4.953125q-0.296875 0.15625 -0.53125 0.390625q-0.234375 0.234375 -0.546875 0.234375q-0.625 0 -0.671875 -0.3125q-0.03125 -0.3125 -0.328125 -0.3125q-0.3125 0 -0.546875 0.125q-0.234375 0.109375 -0.46875 0.265625q-0.390625 -0.15625 -0.890625 -0.203125q-0.5 -0.03125 -0.734375 -0.34375q-0.546875 0.390625 -1.078125 0.390625q-0.625 0 -1.25 -0.390625q-0.46875 0.15625 -0.921875 0.15625q-0.234375 0 -0.546875 -0.078125q-0.3125 -0.078125 -0.46875 -0.234375q-0.078125 -0.3125 -0.078125 -0.609375q0 -0.3125 0 -0.703125q0 -0.78125 -0.15625 -1.15625q1.40625 -3.953125 2.71875 -8.015625q1.3125 -4.078125 2.640625 -8.265625q0.6875 -1.9375 1.34375 -3.796875q0.65625 -1.859375 1.28125 -3.78125q0.3125 -1.09375 0.546875 -2.0625q0.234375 -0.96875 0.609375 -1.890625q0.625 -2.015625 1.28125 -4.0625q0.65625 -2.0625 1.203125 -4.078125q0.3125 -0.234375 0.390625 -0.53125q0.078125 -0.3125 0.234375 -0.703125l-0.078125 -1.015625q0.546875 -0.765625 0.734375 -1.34375q0.1875 -0.59375 0.265625 -1.203125q0.390625 -0.9375 0.703125 -2.015625q0.3125 -1.09375 0.46875 -2.015625q0.15625 -1.234375 0.1875 -2.828125q0.046875 -1.59375 0.421875 -2.671875q0.15625 -0.3125 0.265625 -0.421875q0.125 -0.125 0.125 -0.515625q0.15625 -0.15625 0.34375 -0.34375q0.203125 -0.1875 0.28125 -0.421875q0.390625 -0.625 0.265625 -1.078125q-0.109375 -0.46875 -0.109375 -1.015625q0.6875 -0.390625 0.609375 -0.703125q-0.078125 -0.3125 -0.078125 -0.609375q0 -0.390625 0.5 -0.734375q0.515625 -0.359375 0.671875 -0.75q0.46875 0.078125 0.921875 0.125q0.46875 0.03125 0.9375 -0.046875q0.53125 1.015625 1.3125 1.015625l0.15625 0.078125zm53.53579 45.390625q0.53125 0.703125 0.640625 1.125q0.125 0.421875 0.28125 0.859375q0.15625 0.421875 0.265625 0.8125q0.125 0.375 0.125 0.453125q0 0.546875 -0.203125 0.90625q-0.1875 0.34375 -0.578125 0.875q-3.09375 1.171875 -6.1250076 2.296875q-3.015625 1.125 -6.1875 2.203125q-0.859375 0.234375 -1.5625 0.515625q-0.6875 0.265625 -1.53125 0.421875q-0.15625 0.140625 -0.515625 0.265625q-0.34375 0.109375 -0.8125 0.265625q-0.453125 0.15625 -0.890625 0.28125q-0.421875 0.109375 -0.578125 0.109375q-0.609375 0.15625 -1.359375 0.125q-0.734375 -0.046875 -1.421875 0.03125q-0.390625 0.078125 -0.546875 0.390625q-0.15625 0.3125 -0.359375 0.65625q-0.1875 0.34375 -0.578125 0.625q-0.375 0.265625 -1.078125 0.265625q-0.703125 0 -1.40625 -0.078125q-0.6875 -0.078125 -1.453125 -0.390625q-0.15625 -0.234375 -0.125 -0.578125q0.046875 -0.34375 -0.109375 -0.578125q-0.703125 -0.078125 -1.09375 0.125q-0.375 0.1875 -0.765625 0.265625q-0.234375 -0.3125 -0.359375 -0.734375q-0.109375 -0.4375 -0.421875 -0.75q-0.078125 -0.375 -0.078125 -0.765625q0 -0.390625 0 -0.78125q0 -0.546875 0.03125 -1.28125q0.046875 -0.734375 0.28125 -1.125q0.234375 -4.40625 0.234375 -8.8125q0 -4.421875 0 -8.84375q0 -0.46875 0 -1.203125q0 -0.734375 -0.046875 -1.5q-0.03125 -0.78125 -0.078125 -1.4375q-0.03125 -0.65625 -0.109375 -0.96875q0.078125 -0.546875 0.078125 -1.046875q0 -0.5 0 -1.046875q0 -0.46875 0 -0.84375q0 -0.390625 -0.15625 -0.78125q0.078125 -0.3125 0.078125 -0.859375q0 -0.375 -0.078125 -0.765625q-0.078125 -0.390625 -0.078125 -0.78125q0 -0.625 0.03125 -1.203125q0.046875 -0.578125 0.046875 -1.203125q0 -2.0 -0.203125 -3.96875q-0.1875 -1.984375 -0.1875 -4.0q0 -2.640625 -0.046875 -5.265625q-0.03125 -2.640625 -0.109375 -5.28125q0.3125 -0.765625 0.3125 -1.3125q1.09375 -0.546875 1.703125 -0.390625q0.625 0.15625 1.25 0.15625q0.375 0 0.6875 -0.078125q0.3125 -0.078125 0.625 -0.234375q0.390625 0.078125 0.65625 0.203125q0.265625 0.109375 0.65625 0.109375q1.171875 -0.234375 1.28125 -0.078125q0.109375 0.15625 0.34375 0.3125q0.3125 -0.078125 0.5 -0.265625q0.203125 -0.203125 0.515625 -0.203125q0.46875 0 0.6875 0.59375q0.234375 0.578125 0.546875 0.96875q0 0.84375 0.3125 1.546875q0.15625 3.171875 0.109375 6.28125q-0.03125 3.09375 0.203125 6.1875q0.078125 1.390625 0.1875 2.90625q0.125 1.515625 0.125 2.90625q0 2.328125 0.03125 4.6875q0.046875 2.359375 0.046875 4.765625q0 0.390625 0.03125 0.703125q0.046875 0.296875 0.046875 0.6875q0 0.921875 -0.078125 1.78125q-0.078125 0.859375 -0.078125 1.703125l0 6.046875q0 0.765625 -0.046875 1.59375q-0.03125 0.8125 0.046875 1.578125l0.296875 0.9375q0.859375 -0.3125 1.75 -0.65625q0.890625 -0.359375 1.90625 -0.515625q0.609375 -0.15625 1.15625 -0.3125q0.546875 -0.15625 1.15625 -0.296875q1.09375 -0.625 1.703125 -0.859375q0.625 -0.234375 1.25 -0.46875q1.3125 -0.453125 2.546875 -0.953125q1.25 -0.515625 2.5625076 -0.984375q0.625 0.15625 1.0 -0.15625q0.78125 0.15625 1.40625 0.15625q0.84375 0.859375 1.03125 1.328125q0.203125 0.453125 0.59375 0.84375q-0.15625 0.390625 0.03125 0.46875q0.203125 0.078125 0.28125 0.390625q0.296875 0.15625 0.0625 0.421875q-0.21875 0.265625 -0.296875 0.5zm37.564774 -41.59375q-0.84375 1.546875 -1.9375 3.640625q-1.078125 2.09375 -1.703125 3.640625q-0.234375 0.53125 -0.4375 1.046875q-0.1875 0.5 -0.40625 1.046875q-0.390625 1.15625 -0.984375 2.203125q-0.578125 1.046875 -1.03125 2.203125q-0.703125 1.546875 -1.4375 3.140625q-0.734375 1.59375 -1.4375 3.296875q-0.765625 1.546875 -1.203125 2.671875q-0.421875 1.125 -0.890625 2.28125q-0.453125 1.15625 -0.8125 2.28125q-0.34375 1.125 -0.578125 2.0625q-0.703125 1.234375 -1.15625 1.859375q-0.15625 1.390625 -0.3125 2.78125q-0.15625 1.390625 -0.15625 2.875q0 0.6875 0.109375 1.359375q0.125 0.65625 0.203125 1.34375q0.078125 1.015625 0.03125 1.984375q-0.03125 0.96875 0.046875 1.96875q0.078125 1.9375 0.1875 3.84375q0.125 1.890625 0.203125 3.90625q0.078125 1.390625 -0.125 2.359375q-0.1875 0.96875 -0.109375 1.96875q-0.234375 0.15625 -0.515625 0.234375q-0.265625 0.078125 -0.5 0.234375q-0.84375 0 -1.125 -0.046875q-0.265625 -0.03125 -0.5 0.125q-0.6875 -0.46875 -0.765625 -0.4375q-0.078125 0.046875 -0.15625 0.046875q-0.9375 -0.296875 -1.015625 -0.453125q-0.078125 -0.15625 -0.3125 -0.3125q-0.84375 0 -1.390625 0.234375q-0.234375 -0.15625 -0.390625 -0.3125q-0.15625 -0.15625 -0.375 -0.3125q-0.703125 -0.078125 -1.171875 -0.1875q-0.46875 -0.125 -0.765625 -0.28125q-0.234375 -0.609375 -0.515625 -1.078125q-0.265625 -0.46875 -0.265625 -1.234375q0 -0.625 0.15625 -1.171875q0.15625 -0.546875 0.234375 -1.15625q0 -0.390625 -0.046875 -0.703125q-0.03125 -0.3125 -0.03125 -0.6875q0 -0.390625 0.15625 -1.015625q-0.234375 -1.78125 -0.203125 -3.75q0.046875 -1.984375 0.046875 -3.765625q0 -1.78125 -0.3125 -3.328125q0.078125 -1.0 0 -1.421875q-0.078125 -0.4375 -0.078125 -0.90625q0 -0.390625 0.078125 -0.8125q0.078125 -0.421875 0.078125 -0.8125q0 -0.078125 -0.125 -0.8125q-0.109375 -0.734375 -0.265625 -1.546875q-0.15625 -0.8125 -0.3125 -1.546875q-0.15625 -0.734375 -0.15625 -0.890625q-0.765625 -1.40625 -1.15625 -2.640625q-0.390625 -1.234375 -0.859375 -2.09375q-0.296875 -0.609375 -0.609375 -1.234375q-0.3125 -0.625 -0.546875 -1.3125q-0.15625 -0.390625 -0.28125 -0.859375q-0.109375 -0.46875 -0.265625 -0.84375q-0.296875 -0.625 -0.578125 -1.359375q-0.265625 -0.734375 -0.65625 -1.203125q-0.3125 -0.703125 -0.578125 -1.28125q-0.265625 -0.578125 -0.265625 -1.125q-0.234375 -0.921875 -0.75 -1.65625q-0.5 -0.734375 -0.890625 -1.515625q-0.21875 -0.46875 -0.34375 -0.84375q-0.109375 -0.390625 -0.265625 -0.78125q-0.15625 -0.3125 -0.4375 -0.765625q-0.265625 -0.46875 -0.578125 -0.703125q-0.15625 -0.703125 -0.546875 -1.234375q-0.375 -0.546875 -0.53125 -1.25q-0.390625 -0.546875 -0.859375 -1.078125q-0.296875 -1.171875 -0.84375 -2.140625q-0.546875 -0.96875 -1.015625 -2.046875q0.3125 -1.625 1.78125 -2.015625q0.78125 -0.9375 0.9375 -1.0q0.15625 -0.078125 0.703125 -0.078125q0.453125 -0.390625 0.921875 -0.65625q0.46875 -0.28125 1.078125 -0.125q0.078125 -0.3125 0.421875 -0.546875q0.359375 -0.234375 0.671875 -0.234375q0.46875 0 0.8125 0.46875q0.34375 0.46875 0.734375 0.703125q0.625 1.078125 1.28125 2.09375q0.65625 1.0 1.125 2.09375q0.53125 1.078125 0.953125 2.171875q0.4375 1.078125 1.28125 2.078125q0.390625 1.546875 1.203125 2.90625q0.8125 1.359375 1.359375 2.90625q0.390625 0.9375 0.890625 1.828125q0.5 0.890625 0.890625 1.890625q0.234375 0.46875 0.390625 0.9375q0.15625 0.453125 0.3125 0.921875q0.15625 0.390625 0.3125 1.015625q0.15625 0.609375 0.375 1.0q0.546875 -0.546875 0.9375 -1.390625q0.546875 -1.09375 1.125 -2.0625q0.578125 -0.96875 1.046875 -2.046875q0.609375 -1.015625 0.875 -2.09375q0.28125 -1.078125 0.671875 -2.171875q0.15625 -0.390625 0.34375 -0.765625q0.203125 -0.390625 0.34375 -0.859375q0.234375 -0.46875 0.390625 -0.921875q0.15625 -0.46875 0.3125 -0.9375q0.546875 -1.46875 1.203125 -2.90625q0.65625 -1.4375 1.359375 -2.90625q0.078125 -0.234375 0.34375 -0.6875q0.265625 -0.46875 0.609375 -0.96875q0.359375 -0.515625 0.671875 -0.890625q0.3125 -0.390625 0.546875 -0.546875q0.140625 -0.15625 0.484375 -0.1875q0.359375 -0.046875 0.59375 -0.125q0.703125 0 1.0 0.390625q0.9375 0.390625 1.390625 0.546875q0.46875 0.15625 0.703125 0.6875q1.171875 0.78125 1.75 0.90625q0.578125 0.109375 0.890625 0.640625q0.84375 0.546875 1.0 0.78125q0.15625 0.234375 0.3125 0.46875zm35.555588 -0.546875q-0.15625 0.3125 -0.125 0.625q0.046875 0.3125 0.046875 0.6875q-0.15625 0.9375 0 0.9375q0.15625 0 0.15625 0.15625l-0.53125 0.765625q0 0.46875 -0.203125 0.859375q-0.1875 0.390625 -0.109375 0.921875q-0.234375 0.390625 -0.4375 0.78125q-0.1875 0.390625 -0.578125 0.765625l-1.0 0q-0.859375 0 -1.828125 0.125q-0.96875 0.109375 -1.890625 0.109375q-0.15625 0 -0.390625 -0.03125q-0.234375 -0.046875 -0.46875 -0.046875q-0.15625 0 -0.390625 0.046875q-0.21875 0.03125 -0.53125 0.03125q-1.171875 0 -2.296875 -0.109375q-1.109375 -0.125 -2.359375 -0.125q-0.3125 0 -0.625 0q-0.296875 0 -0.6875 0.078125q-0.078125 1.328125 -0.125 2.6875q-0.03125 1.34375 -0.03125 2.75q0 0.375 -0.078125 0.8125q-0.078125 0.421875 -0.078125 0.8125q-0.078125 1.0 -0.125 1.9375q-0.03125 0.921875 -0.03125 1.9375q0 2.15625 0.03125 4.328125q0.046875 2.171875 0.125 4.421875q0.078125 1.15625 0.15625 2.25q0.078125 1.078125 0.078125 2.234375q0 2.640625 -0.078125 5.234375q-0.078125 2.59375 -0.078125 5.234375q0 0.84375 -0.078125 1.578125q-0.078125 0.734375 -0.078125 1.59375q0 1.78125 0.078125 3.5625q0.078125 1.78125 0.078125 3.5625q0 0.859375 -0.046875 1.71875q-0.03125 0.84375 -0.03125 1.6875q-0.390625 0.625 -0.546875 1.078125q-0.140625 0.46875 -0.921875 0.46875q-0.546875 -0.15625 -0.515625 -0.34375q0.046875 -0.1875 -0.109375 -0.34375q-0.6875 -0.078125 -1.046875 0.109375q-0.34375 0.203125 -0.8125 0.359375q-0.234375 -0.078125 -0.5 -0.078125q-0.265625 0 -0.5 0q-0.15625 0 -0.3125 0.109375q-0.15625 0.109375 -0.703125 0.109375q-0.453125 0.078125 -0.53125 -0.15625q-0.078125 -0.21875 -0.46875 -0.21875q-0.390625 0.234375 -0.890625 0.34375q-0.5 0.109375 -0.96875 0.109375q-0.46875 -0.296875 -0.4375 -0.578125q0.046875 -0.265625 -0.109375 -0.578125q-0.078125 -0.15625 -0.265625 -0.421875q-0.1875 -0.28125 -0.34375 -0.421875q0.15625 -1.09375 0.21875 -1.9375q0.078125 -0.859375 0.078125 -1.859375q0 -2.015625 -0.15625 -3.953125q-0.140625 -1.9375 -0.140625 -3.953125q0 -0.625 0.140625 -1.3125q0.15625 -0.703125 0.15625 -1.484375q-0.140625 -0.609375 -0.078125 -0.71875q0.078125 -0.125 0.078125 -0.28125q0 -0.46875 -0.046875 -0.921875q-0.03125 -0.46875 -0.03125 -0.9375q0 -0.9375 0.03125 -1.859375q0.046875 -0.9375 0.046875 -1.859375q0 -0.390625 -0.046875 -0.8125q-0.03125 -0.421875 -0.03125 -0.8125q-0.0625 -0.703125 -0.03125 -1.46875q0.03125 -0.78125 0.03125 -1.5625q0 -3.71875 -0.109375 -7.359375q-0.109375 -3.640625 -0.109375 -7.359375q0 -1.859375 0.1875 -3.671875q0.1875 -1.828125 0.1875 -3.6875q0 -0.21875 -0.15625 -0.609375q-0.140625 -0.390625 -0.296875 -0.546875q-0.390625 0 -0.75 -0.03125q-0.34375 -0.046875 -0.734375 -0.046875q-0.84375 0 -1.625 0.234375q-1.46875 0.078125 -2.828125 0.203125q-1.34375 0.109375 -2.75 0.1875q-0.921875 -0.078125 -1.125 -0.03125q-0.1875 0.03125 -0.421875 0.03125q-0.609375 0 -0.921875 -0.3125l0 -1.015625q-0.46875 -0.921875 -0.390625 -1.0q0.078125 -0.078125 0.078125 -0.234375q0 -0.234375 -0.421875 -0.5q-0.4375 -0.265625 -0.4375 -0.890625q-0.078125 -0.625 -0.296875 -0.921875q-0.234375 -0.3125 -0.234375 -0.625q0 -0.546875 0.234375 -1.25q0.6875 -0.375 1.34375 -0.53125q0.65625 -0.15625 1.515625 -0.390625q0.46875 -0.15625 0.84375 -0.3125q0.390625 -0.15625 0.859375 -0.234375q0.546875 -0.078125 1.078125 -0.078125q0.546875 0 1.09375 -0.078125q1.15625 -0.234375 2.4375 -0.375q1.28125 -0.15625 2.4375 -0.15625q1.09375 0 2.171875 0.265625q1.078125 0.265625 1.9375 0.265625q1.234375 0 2.359375 0.15625q1.125 0.15625 2.359375 0.15625q0.15625 0 0.5 0.125q0.359375 0.109375 0.828125 0.109375l7.515625 0q0.609375 0.15625 0.875 0.078125q0.28125 -0.078125 0.515625 -0.078125q0.625 0 1.15625 0.078125q0.546875 0.078125 1.171875 0.078125q0.53125 0 0.84375 -0.078125q0.625 0.078125 1.15625 0.359375q0.546875 0.265625 1.25 0.265625q0.3125 0.21875 0.46875 0.578125q0.15625 0.34375 0.53125 0.5zm15.416931 35.09375q0.15625 0.390625 1.125 1.625q0.96875 1.234375 2.203125 2.71875q1.25 1.46875 2.375 2.828125q1.125 1.34375 1.578125 1.96875q0.859375 1.078125 1.671875 2.125q0.8125 1.046875 1.515625 2.21875l1.390625 2.3125q0.625 0.78125 1.125 1.328125q0.5 0.53125 0.8125 1.46875q0.15625 0.625 0.15625 0.84375q0 0.546875 -0.390625 0.78125q-0.625 0 -0.671875 0.1875q-0.03125 0.203125 -0.34375 0.359375q-0.296875 0.15625 -0.96875 0.1875q-0.65625 0.046875 -1.03125 0.046875q-0.703125 0 -1.75 -0.046875q-1.046875 -0.03125 -1.671875 0.203125q-0.15625 0.0625 -0.46875 0.21875q-0.296875 0.15625 -0.453125 0.15625q-0.625 0 -0.890625 -0.1875q-0.265625 -0.1875 -0.734375 -0.265625q-0.625 -0.703125 -1.046875 -1.4375q-0.421875 -0.734375 -0.96875 -1.515625q-0.546875 -0.546875 -1.09375 -0.96875q-0.53125 -0.421875 -0.921875 -0.96875q-1.15625 -1.703125 -2.40625 -3.328125q-1.234375 -1.625 -2.546875 -3.171875q-0.625 -0.859375 -1.328125 -1.546875q-0.6875 -0.703125 -1.3125 -1.5625q-0.625 -0.765625 -1.171875 -1.65625q-0.53125 -0.890625 -1.078125 -1.75q-0.453125 -0.6875 -1.234375 -1.8125q-0.78125 -1.125 -1.71875 -2.25q-0.921875 -1.125 -1.859375 -2.125q-0.921875 -1.015625 -1.53125 -1.5625q-0.078125 -0.453125 -0.390625 -0.71875q-0.3125 -0.28125 -0.703125 -0.515625q-0.15625 -0.390625 -0.34375 -0.734375q-0.1875 -0.34375 -0.1875 -0.734375q0 -0.546875 0.234375 -1.015625q0.140625 -0.296875 0.1875 -0.5625q0.03125 -0.28125 0.1875 -0.59375q0.390625 -0.84375 1.046875 -1.65625q0.65625 -0.828125 1.046875 -1.75q0.15625 -0.234375 0.15625 -0.5q0 -0.28125 0.15625 -0.5q0.15625 -0.625 0.65625 -1.046875q0.5 -0.4375 0.8125 -0.96875q0.390625 -0.625 0.734375 -1.28125q0.359375 -0.65625 0.734375 -1.4375q1.171875 -1.9375 2.4375 -3.75q1.28125 -1.828125 2.609375 -3.6875q1.0 -1.546875 1.96875 -2.96875q0.96875 -1.4375 1.984375 -2.921875q0.53125 -0.6875 1.15625 -1.609375q0.625 -0.9375 1.359375 -1.859375q0.734375 -0.9375 1.5 -1.703125q0.78125 -0.78125 1.5625 -1.25q1.15625 -0.078125 1.53125 0.5q0.390625 0.578125 1.171875 0.578125q1.0 0.234375 1.3125 0.625q0.3125 0.390625 0.703125 0.765625q1.078125 0 1.734375 0.390625q0.671875 0.390625 1.28125 1.171875q-0.234375 0.84375 -0.703125 1.5q-0.453125 0.65625 -0.84375 1.359375q-0.625 0.3125 -0.890625 0.859375q-0.265625 0.53125 -0.8125 0.84375q-0.78125 1.3125 -1.640625 2.515625q-0.84375 1.203125 -1.6875 2.359375q-0.46875 0.703125 -0.96875 1.25q-0.5 0.546875 -0.890625 1.15625q-0.15625 0.234375 -0.28125 0.515625q-0.109375 0.265625 -0.265625 0.5q-0.921875 1.46875 -2.015625 2.75q-1.078125 1.265625 -2.015625 2.828125q-0.296875 0.53125 -0.5 1.125q-0.1875 0.578125 -0.5 1.109375q-0.3125 0.46875 -0.890625 1.25q-0.578125 0.765625 -1.125 1.65625q-0.546875 0.890625 -0.96875 1.703125q-0.421875 0.8125 -0.421875 1.359375q0.078125 0.390625 0.96875 1.515625q0.890625 1.125 2.015625 2.40625q1.125 1.265625 2.125 2.390625q1.0 1.125 1.3125 1.359375zm5.109375 -14.09375q0.546875 1.15625 1.171875 2.015625q0.234375 0.296875 0.53125 0.53125q0.3125 0.234375 0.46875 0.625q0.15625 0.15625 0.3125 0.65625q0.15625 0.5 0.3125 0.734375q0.234375 0.625 0.921875 1.40625q0.703125 0.765625 0.703125 1.390625q0 0.375 -0.15625 0.84375q-0.15625 0.46875 -0.234375 0.859375q-0.078125 0.453125 -0.078125 0.96875q0 0.5 -0.296875 0.890625q-0.390625 0.390625 -0.859375 0.46875q-0.46875 0.0625 -0.859375 0.375q-0.140625 0.15625 -0.453125 0.546875q-0.3125 0.390625 -0.625 0.859375q-0.3125 0.453125 -0.59375 0.890625q-0.265625 0.421875 -0.265625 0.65625q-0.921875 0.078125 -1.203125 0.046875q-0.265625 -0.046875 -0.578125 0.03125q-0.375 -0.390625 -0.8125 -0.65625q-0.421875 -0.28125 -1.046875 -0.515625q-0.140625 -0.609375 -0.6875 -1.421875q-0.546875 -0.828125 -0.9375 -1.359375l-0.53125 -0.703125q-1.171875 -1.625 -2.140625 -3.125q-0.96875 -1.515625 -1.421875 -3.375q1.46875 -1.09375 2.28125 -1.625q0.8125 -0.546875 1.734375 -1.015625q0.9375 -0.46875 1.828125 -0.890625q0.890625 -0.421875 1.671875 -1.046875q0.609375 0 0.84375 0.078125q0.234375 0.078125 0.3125 0.15625q0.078125 0.078125 0.1875 0.28125q0.125 0.1875 0.5 0.421875zm48.042282 26.953125q-0.078125 1.15625 0.5 1.75q0.578125 0.578125 0.96875 1.421875q-0.15625 1.09375 0.234375 1.703125q-0.234375 0.46875 -0.46875 1.0625q-0.234375 0.578125 -0.703125 0.953125q-1.234375 0.546875 -1.46875 0.9375q-0.234375 0.390625 -0.921875 0.390625q-0.390625 0.375 -0.859375 0.796875q-0.46875 0.4375 -0.84375 0.828125q-0.390625 -0.15625 -0.546875 -0.390625q-0.15625 -0.234375 -0.46875 -0.625q-0.765625 -0.234375 -1.390625 -0.8125q-0.625 -0.578125 -1.09375 -1.3125q-0.453125 -0.734375 -0.890625 -1.546875q-0.421875 -0.8125 -0.734375 -1.515625q-1.078125 -2.015625 -2.203125 -4.0625q-1.125 -2.0625 -2.28125 -4.078125q-0.625 -1.0 -1.203125 -2.046875q-0.578125 -1.046875 -1.203125 -2.125q-0.15625 -0.15625 -0.3125 -0.34375q-0.15625 -0.203125 -0.296875 -0.4375q-0.546875 -0.765625 -0.828125 -1.734375q-0.265625 -0.96875 -1.1093597 -1.59375q-1.484375 -0.15625 -2.6875 0.421875q-1.1875 0.578125 -2.125 1.515625q0.078125 0.546875 0.078125 1.015625q0 0.453125 0 0.921875q0 1.78125 -0.15625 3.40625q-0.15625 1.625 -0.15625 3.40625q0 0.78125 0.078125 1.59375q0.078125 0.8125 0.234375 1.578125q-0.234375 0.859375 -0.234375 1.859375q0 0.546875 0.109375 1.015625q0.125 0.46875 0.125 1.0q0 0.78125 -0.5 1.0625q-0.5 0.265625 -0.34375 0.953125q-0.9375 0.390625 -1.796875 0.78125q-0.84375 0.390625 -1.765625 0.546875q-0.390625 0.0625 -0.78125 0.03125q-0.390625 -0.03125 -0.703125 0.109375q-0.375 0.15625 -0.609375 0.578125q-0.234375 0.4375 -0.625 0.4375q-0.46875 0 -0.546875 -0.359375q-0.078125 -0.34375 -0.3125 -0.578125q-0.375 -0.15625 -0.609375 -0.15625q-0.234375 0 -0.46875 -0.21875q0.078125 -0.703125 -0.3125 -1.046875q-0.390625 -0.359375 -0.390625 -1.4375q0 -0.859375 0.109375 -1.625q0.125 -0.78125 0.125 -1.625q0 -0.703125 -0.1875 -1.28125q-0.1875 -0.578125 -0.34375 -1.28125q-0.078125 -0.3125 0 -0.609375q0.078125 -0.3125 0.078125 -0.625q0 -1.390625 -0.125 -2.828125q-0.109375 -1.4375 -0.109375 -2.828125q0 -0.546875 0 -1.0q0 -0.46875 0.078125 -0.9375q0.15625 -0.46875 0.265625 -0.78125q0.109375 -0.3125 0.109375 -0.765625q0 -1.46875 -0.3125 -2.90625q-0.296875 -1.4375 -0.296875 -2.828125q0 -0.78125 0.03125 -1.59375q0.046875 -0.8125 0.046875 -1.578125q0 -2.25 -0.078125 -4.421875q-0.078125 -2.171875 -0.078125 -4.34375q0 -1.546875 0.078125 -3.046875q0.078125 -1.515625 0.078125 -3.0625q0 -1.9375 -0.15625 -3.828125q-0.15625 -1.90625 -0.15625 -3.921875q0 -0.703125 -0.078125 -0.9375q-0.078125 -0.234375 -0.234375 -0.265625q-0.15625 -0.03125 -0.359375 -0.0625q-0.1875 -0.046875 -0.34375 -0.28125q0 -0.46875 0.390625 -0.65625q0.390625 -0.203125 0.390625 -1.28125q0 -0.625 -0.125 -1.234375q-0.109375 -0.625 -0.109375 -1.25q0 -0.921875 0.390625 -1.84375q0.390625 -0.9375 0.703125 -1.796875q0.921875 -0.078125 1.265625 0q0.359375 0.078125 0.734375 -0.078125q0.234375 0.859375 1.0 0.90625q0.78125 0.03125 1.40625 0.171875q0.703125 0.078125 1.359375 0.359375q0.65625 0.265625 1.28125 0.265625q0.15625 0.46875 0.65625 0.671875q0.5 0.1875 1.046875 0.34375q0.609375 -0.078125 0.953125 -0.546875q0.359375 -0.46875 0.984375 -0.46875q0.46875 0 1.078125 0.65625q0.625 0.65625 0.9375 1.046875q0.3125 0.234375 1.15625 1.015625q0.859375 0.765625 1.8593597 1.578125q1.0 0.8125 1.859375 1.5625q0.859375 0.734375 1.078125 0.8125q3.1875 3.171875 5.9375 5.765625q2.75 2.59375 6.0 4.6875q0.078125 0.234375 0.1875 0.390625q0.125 0.15625 0.28125 0.375q0 0.625 -0.234375 0.9375q-0.234375 0.3125 -0.234375 0.78125q0 0.21875 0.109375 0.453125q0.125 0.234375 0.125 0.46875q0.078125 0.3125 0.03125 0.59375q-0.03125 0.265625 -0.03125 0.5625q0 0.78125 0.5 1.40625q0.5 0.609375 0.5 1.390625q-0.15625 0.703125 -0.625 0.859375q-0.453125 0.140625 -0.765625 0.375q-0.15625 0.15625 -0.28125 0.390625q-0.109375 0.234375 -0.265625 0.390625q-1.703125 0.765625 -2.484375 1.4375q-0.765625 0.65625 -1.609375 1.265625q-0.234375 0.15625 -0.78125 0.515625q-0.546875 0.34375 -1.09375 0.6875q-0.53125 0.34375 -0.96875 0.734375q-0.421875 0.390625 -0.421875 0.625q0 0.546875 0.65625 1.515625q0.671875 0.96875 0.96875 1.5q0.859375 1.40625 1.546875 2.765625q0.703125 1.34375 1.5625 2.65625q1.546875 2.40625 2.890625 4.890625q1.359375 2.46875 2.6875 4.953125zm-12.625 -28.8125q-1.78125 -2.25 -3.84375 -4.0625q-2.0468597 -1.828125 -3.9062347 -3.84375l-0.859375 -0.15625q-0.453125 -0.78125 -1.046875 -1.359375q-0.578125 -0.578125 -1.203125 -1.203125q0.078125 0.859375 0.078125 1.640625q0 0.765625 0 1.625q0 2.46875 -0.109375 4.84375q-0.109375 2.359375 -0.109375 4.75q0 2.40625 0.21875 4.578125q1.640625 0 2.953125 -0.9375q0.546875 -0.375 1.0 -0.796875q0.46875 -0.4375 1.015625 -0.828125q0.60935974 -0.375 1.4218597 -0.921875q0.828125 -0.546875 1.640625 -1.078125q0.8125 -0.546875 1.546875 -1.125q0.734375 -0.59375 1.203125 -1.125zm55.922485 5.5q-0.15625 0.3125 -0.3125 0.578125q-0.15625 0.265625 -0.21875 0.578125q0.296875 0.3125 0.5625 0.65625q0.28125 0.34375 0.28125 0.734375q0 0.3125 -0.125 0.59375q-0.109375 0.265625 -0.03125 0.5q-0.3125 0.53125 -0.65625 1.0q-0.34375 0.46875 -0.5 1.015625q-0.3125 0.296875 -0.515625 0.609375q-0.1875 0.3125 -0.34375 0.625q-0.390625 0.15625 -0.5 0.5q-0.109375 0.34375 -0.421875 0.578125q-0.078125 0.3125 -0.78125 1.484375q-0.6875 1.15625 -1.546875 2.46875q-0.859375 1.3125 -1.640625 2.5625q-0.765625 1.234375 -1.078125 1.625q-0.140625 0.390625 -0.34375 0.625q-0.1875 0.21875 -0.421875 0.53125q-0.15625 0.234375 -0.234375 0.515625q-0.078125 0.265625 -0.234375 0.421875q-0.15625 0.3125 -0.359375 0.546875q-0.1875 0.21875 -0.328125 0.609375q-0.78125 1.015625 -1.5625 2.40625q-0.765625 1.390625 -1.46875 2.484375q-0.390625 0.609375 -0.734375 1.234375q-0.34375 0.625 -0.734375 1.234375q-0.390625 0.625 -0.78125 1.171875q-0.375 0.53125 -0.765625 1.15625q-0.625 0.46875 -1.09375 1.125q-0.453125 0.65625 -1.078125 1.125q-1.0 0 -1.234375 -0.9375q-1.015625 -0.234375 -1.015625 0q0 0.234375 0 0.390625q-0.3125 0.15625 -0.4375 0.46875q-0.109375 0.3125 -0.40625 0.453125q-0.625 -0.140625 -1.0625 -0.5q-0.421875 -0.34375 -1.1875 -0.265625q-0.3125 -0.46875 -0.703125 -0.8125q-0.390625 -0.34375 -0.6875 -0.734375q-0.15625 -0.46875 -0.4375 -0.78125q-0.265625 -0.3125 -0.5 -0.609375q-0.234375 -0.390625 -0.46875 -0.703125q-0.21875 -0.3125 -0.453125 -0.625q-0.546875 -0.6875 -1.0625 -1.34375q-0.5 -0.671875 -0.875 -1.359375q-0.625 -0.9375 -1.203125 -1.90625q-0.578125 -0.96875 -1.203125 -1.890625q-0.3125 -0.46875 -0.625 -0.921875q-0.3125 -0.46875 -0.53125 -0.9375q-0.15625 -0.390625 -0.4375 -0.921875q-0.265625 -0.546875 -0.65625 -0.703125q-0.15625 -0.625 -0.546875 -0.9375q-0.375 -0.3125 -0.765625 -0.765625q-0.546875 -0.625 -1.015625 -1.359375q-0.453125 -0.734375 -0.921875 -1.515625q-1.546875 -2.171875 -2.90625 -4.25q-1.359375 -2.09375 -2.671875 -4.34375q0.390625 -1.25 0.390625 -1.859375q0 -0.625 0.390625 -1.015625q0 -0.296875 0.140625 -0.921875q1.015625 -1.703125 1.9375 -3.09375q0.859375 -1.328125 1.203125 -2.171875q0.359375 -0.859375 0.734375 -1.78125q0.390625 -0.234375 0.625 -0.578125q0.234375 -0.359375 0.625 -0.671875q0.15625 -0.84375 0.6875 -1.421875q0.546875 -0.59375 0.703125 -1.4375q0.703125 -0.546875 0.78125 -1.234375q1.0 -0.703125 1.234375 -1.859375q0.625 -0.625 1.046875 -1.390625q0.421875 -0.78125 0.8125 -1.640625q0.921875 -0.765625 1.46875 -2.015625q0.46875 -0.3125 0.703125 -0.84375q0.234375 -0.546875 0.609375 -0.9375q0.625 -1.0 0.96875 -1.65625q0.359375 -0.65625 0.734375 -1.359375q0.546875 0 0.703125 -0.390625q0.15625 -0.390625 0.625 -0.3125q0 -0.6875 0.390625 -1.234375q0.140625 -0.078125 0.453125 -0.1875q0.3125 -0.125 0.3125 -0.28125q-0.15625 -0.921875 0.078125 -1.078125q0.234375 -0.15625 0.390625 -0.3125q0.84375 0.15625 1.15625 0.234375q0.3125 0.078125 1.015625 0.546875q0.765625 0 1.078125 0.3125q0.3125 0.296875 0.703125 0.453125q0.3125 0.3125 0.5 0.625q0.1875 0.3125 0.578125 0.46875q0.625 0.84375 1.3125 1.859375q0.703125 1.0 1.328125 1.859375q0.84375 1.15625 1.734375 2.203125q0.890625 1.046875 1.671875 2.28125q0.234375 0.390625 0.84375 1.359375q0.625 0.96875 1.390625 2.0625q0.78125 1.078125 1.40625 1.96875q0.625 0.890625 0.84375 1.046875q0.234375 0.375 1.0 1.46875q0.78125 1.078125 1.671875 2.28125q0.890625 1.203125 1.75 2.296875q0.859375 1.078125 1.15625 1.390625q0.859375 1.15625 1.28125 1.890625q0.421875 0.734375 0.8125 1.59375zm-17.734375 14.5625q0.84375 -1.171875 1.3125 -2.09375q0.46875 -0.9375 0.9375 -1.859375q0.765625 -0.9375 0.921875 -1.3125q0.15625 -0.390625 0.390625 -0.78125q0.625 -0.921875 1.28125 -1.84375q0.65625 -0.9375 1.046875 -2.03125q0.453125 -0.3125 0.6875 -0.765625q0.234375 -0.46875 0.703125 -0.859375q-0.46875 -1.625 -1.09375 -2.515625q-0.609375 -0.890625 -1.234375 -1.75q-0.234375 -0.375 -0.46875 -0.765625q-0.21875 -0.390625 -0.453125 -0.78125q-0.3125 -0.234375 -0.515625 -0.453125q-0.1875 -0.234375 -0.421875 -0.46875q-0.15625 -0.390625 -0.46875 -1.015625q-0.296875 -0.390625 -0.609375 -0.6875q-0.3125 -0.3125 -0.546875 -0.78125q-0.3125 -0.3125 -0.78125 -0.84375q-0.453125 -0.546875 -0.96875 -1.203125q-0.5 -0.671875 -0.890625 -1.25q-0.375 -0.578125 -0.609375 -0.96875q-0.15625 -0.375 -0.28125 -0.640625q-0.109375 -0.28125 -0.265625 -0.59375q-0.390625 -0.546875 -0.78125 -0.96875q-0.375 -0.421875 -0.765625 -0.96875q-0.234375 0.15625 -0.4375 0.203125q-0.1875 0.03125 -0.34375 0.1875q-0.53125 1.0 -1.203125 1.859375q-0.65625 0.84375 -1.265625 1.859375q-0.546875 0.921875 -1.09375 1.890625q-0.53125 0.96875 -1.078125 1.90625q-0.390625 0.53125 -0.75 1.046875q-0.34375 0.5 -0.71875 1.125q-0.390625 0.53125 -0.671875 1.125q-0.265625 0.578125 -0.65625 1.109375q-0.609375 0.78125 -1.0 1.40625q-0.390625 0.609375 -0.78125 1.46875q0.234375 0.46875 0.734375 1.28125q0.515625 0.8125 1.046875 1.625q0.546875 0.8125 0.96875 1.515625q0.4375 0.6875 0.515625 0.921875q0.609375 0.546875 1.0 1.203125q0.390625 0.65625 1.015625 1.28125q0.296875 0.609375 0.6875 1.078125q0.390625 0.46875 0.78125 1.0q0.390625 0.546875 1.0 1.59375q0.625 1.046875 1.234375 2.140625q0.625 1.078125 1.234375 2.015625q0.625 0.921875 1.015625 1.15625q0.78125 -0.859375 1.28125 -1.90625q0.5 -1.046875 1.359375 -1.890625z" fill-rule="nonzero"/><path fill="#000000" fill-opacity="0.0" d="m8.267718 82.92913l341.73227 0l0 51.716545l-341.73227 0z" fill-rule="evenodd"/><path fill="#000000" d="m24.173967 117.52913l0 -16.828125l-6.28125 0l0 -2.25l15.125002 0l0 2.25l-6.312502 0l0 16.828125l-2.53125 0zm7.366028 0l7.312502 -19.078125l2.734375 0l7.796875 19.078125l-2.875 0l-2.21875 -5.78125l-7.984375 0l-2.09375 5.78125l-2.671877 0zm5.500002 -7.828125l6.46875 0l-2.0 -5.296875q-0.90625 -2.40625 -1.34375 -3.953125q-0.375 1.84375 -1.03125 3.640625l-2.09375 5.609375zm14.3732605 7.828125l0 -19.078125l7.1875 0q1.90625 0 2.90625 0.171875q1.40625 0.234375 2.359375 0.90625q0.9531212 0.65625 1.5312462 1.84375q0.578125 1.171875 0.578125 2.59375q0 2.4375 -1.5625 4.125q-1.5468712 1.6875 -5.593746 1.6875l-4.890625 0l0 7.75l-2.515625 0zm2.515625 -10.015625l4.9375 0q2.453125 0 3.46875 -0.90625q1.03125 -0.90625 1.03125 -2.5625q0 -1.203125 -0.609375 -2.046875q-0.59375 -0.859375 -1.59375 -1.125q-0.625 -0.171875 -2.34375 -0.171875l-4.890625 0l0 6.8125zm11.19096 10.015625l7.3125 -19.078125l2.734375 0l7.796875 19.078125l-2.875 0l-2.21875 -5.78125l-7.984375 0l-2.09375 5.78125l-2.671875 0zm5.5 -7.828125l6.46875 0l-2.0 -5.296875q-0.90625 -2.40625 -1.34375 -3.953125q-0.375 1.84375 -1.03125 3.640625l-2.09375 5.609375zm13.5138855 1.703125l2.375 -0.21875q0.171875 1.4375 0.78125 2.359375q0.625 0.90625 1.921875 1.484375q1.3125 0.5625 2.9375 0.5625q1.4375 0 2.546875 -0.421875q1.109375 -0.4375 1.640625 -1.1875q0.546875 -0.75 0.546875 -1.640625q0 -0.890625 -0.53125 -1.5625q-0.515625 -0.671875 -1.703125 -1.125q-0.765625 -0.296875 -3.40625 -0.921875q-2.625 -0.640625 -3.671875 -1.203125q-1.375 -0.71875 -2.046875 -1.765625q-0.671875 -1.0625 -0.671875 -2.375q0 -1.453125 0.8125 -2.703125q0.828125 -1.265625 2.40625 -1.90625q1.578125 -0.65625 3.5 -0.65625q2.125 0 3.734375 0.6875q1.625 0.671875 2.5 2.0q0.875 1.328125 0.9375 3.015625l-2.421875 0.1875q-0.1875 -1.8125 -1.3125 -2.734375q-1.125 -0.9375 -3.328125 -0.9375q-2.296875 0 -3.34375 0.84375q-1.046875 0.84375 -1.046875 2.03125q0 1.015625 0.75 1.6875q0.71875 0.65625 3.796875 1.359375q3.078125 0.703125 4.234375 1.21875q1.65625 0.765625 2.453125 1.953125q0.796875 1.171875 0.796875 2.703125q0 1.53125 -0.875 2.875q-0.875 1.34375 -2.515625 2.09375q-1.625 0.75 -3.671875 0.75q-2.59375 0 -4.34375 -0.75q-1.75 -0.765625 -2.75 -2.28125q-0.984375 -1.515625 -1.03125 -3.421875zm18.951385 6.125l0 -2.671875l2.65625 0l0 2.671875q0 1.46875 -0.515625 2.375q-0.515625 0.90625 -1.65625 1.40625l-0.640625 -1.015625q0.734375 -0.3125 1.078125 -0.953125q0.359375 -0.625 0.40625 -1.8125l-1.328125 0zm14.421295 0l0 -19.078125l3.796875 0l4.515625 13.5q0.625 1.890625 0.90625 2.828125q0.328125 -1.03125 1.015625 -3.0625l4.578125 -13.265625l3.390625 0l0 19.078125l-2.4375 0l0 -15.96875l-5.546875 15.96875l-2.265625 0l-5.53125 -16.25l0 16.25l-2.421875 0zm34.798615 -19.078125l2.53125 0l0 11.015625q0 2.875 -0.65625 4.578125q-0.65625 1.6875 -2.359375 2.75q-1.6875 1.0625 -4.453125 1.0625q-2.671875 0 -4.390625 -0.921875q-1.703125 -0.921875 -2.4375 -2.671875q-0.71875 -1.765625 -0.71875 -4.796875l0 -11.015625l2.53125 0l0 11.015625q0 2.484375 0.453125 3.65625q0.46875 1.171875 1.59375 1.8125q1.125 0.640625 2.75 0.640625q2.78125 0 3.96875 -1.265625q1.1875 -1.265625 1.1875 -4.84375l0 -11.015625zm-6.578125 -1.1875l1.734375 -3.640625l3.0625 0l-2.859375 3.640625l-1.9375 0zm12.453415 14.140625l2.375 -0.21875q0.171875 1.4375 0.78125 2.359375q0.625 0.90625 1.921875 1.484375q1.3125 0.5625 2.9375 0.5625q1.4375 0 2.546875 -0.421875q1.109375 -0.4375 1.640625 -1.1875q0.546875 -0.75 0.546875 -1.640625q0 -0.890625 -0.53125 -1.5625q-0.515625 -0.671875 -1.703125 -1.125q-0.765625 -0.296875 -3.40625 -0.921875q-2.625 -0.640625 -3.671875 -1.203125q-1.375 -0.71875 -2.046875 -1.765625q-0.671875 -1.0625 -0.671875 -2.375q0 -1.453125 0.8125 -2.703125q0.828125 -1.265625 2.40625 -1.90625q1.578125 -0.65625 3.5 -0.65625q2.125 0 3.734375 0.6875q1.625 0.671875 2.5 2.0q0.875 1.328125 0.9375 3.015625l-2.421875 0.1875q-0.1875 -1.8125 -1.3125 -2.734375q-1.125 -0.9375 -3.328125 -0.9375q-2.296875 0 -3.34375 0.84375q-1.046875 0.84375 -1.046875 2.03125q0 1.015625 0.75 1.6875q0.71875 0.65625 3.796875 1.359375q3.078125 0.703125 4.234375 1.21875q1.65625 0.765625 2.453125 1.953125q0.796875 1.171875 0.796875 2.703125q0 1.53125 -0.875 2.875q-0.875 1.34375 -2.515625 2.09375q-1.625 0.75 -3.671875 0.75q-2.59375 0 -4.34375 -0.75q-1.75 -0.765625 -2.75 -2.28125q-0.984375 -1.515625 -1.03125 -3.421875zm19.06076 6.125l0 -19.078125l2.53125 0l0 19.078125l-2.53125 0zm20.59346 -6.6875l2.53125 0.640625q-0.796875 3.109375 -2.859375 4.75q-2.0625 1.625 -5.046875 1.625q-3.09375 0 -5.03125 -1.25q-1.921875 -1.265625 -2.9375 -3.640625q-1.0 -2.390625 -1.0 -5.125q0 -2.984375 1.140625 -5.203125q1.140625 -2.21875 3.234375 -3.359375q2.109375 -1.15625 4.625 -1.15625q2.875 0 4.828125 1.46875q1.953125 1.453125 2.71875 4.09375l-2.484375 0.578125q-0.671875 -2.078125 -1.9375 -3.03125q-1.25 -0.953125 -3.171875 -0.953125q-2.203125 0 -3.6875 1.0625q-1.46875 1.046875 -2.0625 2.828125q-0.59375 1.78125 -0.59375 3.65625q0 2.4375 0.703125 4.265625q0.703125 1.8125 2.203125 2.71875q1.5 0.890625 3.25 0.890625q2.109375 0 3.578125 -1.21875q1.484375 -1.234375 2.0 -3.640625zm3.547165 6.6875l7.3125 -19.078125l2.734375 0l7.796875 19.078125l-2.875 0l-2.21875 -5.78125l-7.984375 0l-2.09375 5.78125l-2.671875 0zm5.5 -7.828125l6.46875 0l-2.0 -5.296875q-0.90625 -2.40625 -1.34375 -3.953125q-0.375 1.84375 -1.03125 3.640625l-2.09375 5.609375zm25.201096 7.828125l0 -8.078125l-7.359375 -11.0l3.078125 0l3.75 5.75q1.046875 1.609375 1.9375 3.234375q0.859375 -1.5 2.09375 -3.375l3.6875 -5.609375l2.953125 0l-7.625 11.0l0 8.078125l-2.515625 0zm19.25058 0l0 -19.078125l3.796875 0l4.515625 13.5q0.625 1.890625 0.90625 2.828125q0.328125 -1.03125 1.015625 -3.0625l4.5781555 -13.265625l3.390625 0l0 19.078125l-2.4375 0l0 -15.96875l-5.5469055 15.96875l-2.265625 0l-5.53125 -16.25l0 16.25l-2.421875 0zm20.18924 0l7.3125 -19.078125l2.734375 0l7.796875 19.078125l-2.875 0l-2.21875 -5.78125l-7.984375 0l-2.09375 5.78125l-2.671875 0zm5.5 -7.828125l6.46875 0l-2.0 -5.296875q-0.90625 -2.40625 -1.34375 -3.953125q-0.375 1.84375 -1.03125 3.640625l-2.09375 5.609375zm14.404541 7.828125l0 -19.078125l8.46875 0q2.546875 0 3.875 0.515625q1.328125 0.515625 2.109375 1.8125q0.796875 1.296875 0.796875 2.875q0 2.03125 -1.3125 3.421875q-1.3125 1.390625 -4.0625 1.765625q1.015625 0.484375 1.53125 0.953125q1.109375 1.015625 2.09375 2.546875l3.3125 5.1875l-3.171875 0l-2.515625 -3.96875q-1.109375 -1.71875 -1.828125 -2.625q-0.71875 -0.921875 -1.28125 -1.28125q-0.5625 -0.359375 -1.15625 -0.5q-0.421875 -0.09375 -1.40625 -0.09375l-2.921875 0l0 8.46875l-2.53125 0zm2.53125 -10.65625l5.421875 0q1.734375 0 2.703125 -0.359375q0.984375 -0.359375 1.484375 -1.140625q0.515625 -0.796875 0.515625 -1.71875q0 -1.359375 -0.984375 -2.21875q-0.984375 -0.875 -3.109375 -0.875l-6.03125 0l0 6.3125z" fill-rule="nonzero"/></g></svg>