<svg xmlns="http://www.w3.org/2000/svg" version="1.1" xmlns:xlink="http://www.w3.org/1999/xlink" xmlns:svgjs="http://svgjs.com/svgjs" width="1440" height="560" preserveAspectRatio="none" viewBox="0 0 1440 560"><g mask="url(&quot;#SvgjsMask1019&quot;)" fill="none"><rect width="1440" height="560" x="0" y="0" fill="#0e2a47"></rect><path d="M0,390.545C88.203,387.526,179.546,441.381,259.095,403.159C340.318,364.133,398.933,278.651,416.727,190.313C433.5,107.046,356.764,34.316,350.453,-50.388C343.409,-144.928,423.231,-244.267,378.135,-327.656C333.589,-410.028,225.903,-441.607,132.912,-452.656C46.722,-462.897,-37.629,-428.471,-113.356,-386.056C-178.029,-349.832,-215.053,-284.392,-265.113,-229.722C-316.886,-173.182,-401.023,-135.107,-412.544,-59.315C-424.066,16.488,-344.11,73.701,-322.413,147.241C-295.564,238.244,-346.484,364.14,-270.748,421.293C-196.747,477.137,-92.653,393.716,0,390.545" fill="#091b2e"></path><path d="M1440 1002.4010000000001C1547.964 999.621 1654.446 1090.421 1754.049 1048.67 1854.781 1006.4449999999999 1902.242 891.136 1945.104 790.673 1987.156 692.11 2014.664 585.601 1996.687 479.961 1978.952 375.738 1906.5059999999999 294.896 1845.988 208.20999999999998 1778.203 111.11399999999998 1735.599-26.477999999999952 1621.3609999999999-57.65899999999999 1506.989-88.87699999999995 1396.676 0.80499999999995 1292.3319999999999 57.089 1206.255 103.51999999999998 1137.112 168.23399999999998 1070.2559999999999 239.615 1000.729 313.848 911.391 381.26800000000003 894.731 481.602 877.986 582.444 946.196 673.386 982.352 769.001 1021.4159999999999 872.307 1016.995 1014.9359999999999 1115.383 1065.114 1215.589 1116.219 1327.552 1005.296 1440 1002.4010000000001" fill="#133960"></path></g><defs><mask id="SvgjsMask1019"><rect width="1440" height="560" fill="#ffffff"></rect></mask></defs></svg>