<svg version="1.1" viewBox="0.0 0.0 400.0 150.0" fill="none" stroke="none" stroke-linecap="square" stroke-miterlimit="10" xmlns:xlink="http://www.w3.org/1999/xlink" xmlns="http://www.w3.org/2000/svg"><clipPath id="gf3ca8a3889_0_3.0"><path d="m0 0l400.0 0l0 150.0l-400.0 0l0 -150.0z" clip-rule="nonzero"/></clipPath><g clip-path="url(#gf3ca8a3889_0_3.0)"><path fill="#000000" fill-opacity="0.0" d="m0 0l400.0 0l0 150.0l-400.0 0z" fill-rule="evenodd"/><path fill="#000000" fill-opacity="0.0" d="m0.003948822 -32.750656l399.99292 0l0 124.78887l-399.99292 0z" fill-rule="evenodd"/><path fill="#000000" d="m21.967968 74.549965q-14.78125 -1.25 -14.78125 -15.171875q0 -8.25 5.1875005 -17.46875q3.0625 -5.578125 7.718749 -10.84375q4.65625 -5.28125 10.171875 -9.546875q5.53125 -4.28125 11.328125 -6.78125q5.8125 -2.5 11.1875 -2.5q9.515625 0 9.515625 7.015625q0 4.703125 -2.890625 10.453125q-2.875 5.765625 -5.859375 7.296875q-0.28125 0.109375 -0.671875 0.109375q-0.28125 0 -0.28125 -0.203125l3.171875 -5.1875q3.265625 -5.375 3.265625 -9.40625q0 -2.875 -1.546875 -5.46875q-1.53125 -2.59375 -5.46875 -2.59375q-4.796875 0 -9.84375 2.6875q-5.03125 2.6875 -9.734375 7.109375q-4.703125 4.421875 -8.546875 9.75q-3.84375 5.328125 -6.140625 10.5q-4.906249 11.046875 -4.906249 17.859375q0 10.28125 10.468749 10.28125q9.984375 0 27.078125 -12.875q3.9375 -2.96875 10.125 -8.34375q6.187504 -5.375 14.546879 -13.0625q-1.15625 0.09375 -2.890625 0.25q-1.71875 0.140625 -4.03125 0.515625q-0.953125 0.203125 -1.828125 0.34375q-0.859375 0.140625 -1.625 0.140625q-1.9218788 -0.1875 -1.6250038 -0.953125q0.375 -3.5625 3.6406288 -3.5625q2.984375 0.390625 5.625 0.578125q2.640625 0.1875 5.03125 0.1875q3.75 -3.453125 9.9375 -9.640625q6.1875 -6.1875 14.734375 -15.21875q11.046875 -11.609375 13.4375 -11.609375q1.0625 0 1.0625 1.921875q0 0.765625 -0.203125 1.9218749q-0.1875 1.1406252 -0.5625 2.6718752q-0.96875 3.65625 -2.015625 4.421875q-2.984375 2.109375 -4.953125 5.421875q-1.96875 3.3125 -3.984375 7.34375q-2.015625 4.125 -3.703125 7.34375q-1.671875 3.21875 -3.015625 5.71875l9.3125 -0.1875q3.453125 0 3.453125 0.46875q0 0.09375 -0.1875 0.296875q-1.625 1.046875 -13.828125 1.921875q-8.921875 17.375 -8.921875 23.796875q0 4.421875 2.78125 4.421875q1.0625 0 2.6875 -1.34375q1.53125 -1.25 1.921875 -1.25q0 -0.1875 0.09375 -0.09375q0.09375 0.09375 -0.09375 0.09375q-0.484375 1.734375 -2.84375 3.125q-2.34375 1.390625 -4.9375 1.390625q-2.390625 0 -3.171875 -1.546875q-0.765625 -1.53125 -0.765625 -4.21875q0 -9.6875 7.40625 -24.671875l-11.53125 0.296875q-12.859375 12.5625 -25.812504 22.078125q-20.640625 14.96875 -31.6875 14.015625zm69.890625 -38.890625q1.15625 -2.203125 4.609375 -8.0q3.453125 -5.8125 9.3125 -15.125l-24.578125 23.03125l10.65625 0.09375zm39.646698 27.9375q-2.78125 0 -5.1875 -1.390625q-2.390625 -1.390625 -2.390625 -4.65625q0 -4.515625 3.203125 -10.75q3.21875 -6.234375 7.34375 -12.953125q11.234375 -18.25 15.9375 -18.25q0.96875 0 1.96875 0.71875q1.015625 0.71875 1.109375 1.59375l-6.71875 9.015625q-3.9375 5.28125 -7.109375 9.75q-3.171875 4.46875 -5.46875 8.015625q-1.15625 1.828125 -2.59375 4.140625q-1.4375 2.296875 -2.546875 4.75q-1.09375 2.4375 -1.09375 4.9375q0 1.140625 0.671875 2.0625q0.671875 0.90625 2.390625 0.90625q3.078125 0 8.0625 -3.3125q5.0 -3.3125 9.890625 -9.171875q0.484375 -0.5625 1.0625 -1.046875q0.578125 -0.484375 0.953125 -0.484375q0.484375 0 0.484375 0.578125q0 0.28125 -0.625 1.109375q-0.625 0.8125 -1.015625 1.296875l-2.296875 2.578125q-1.921875 2.125 -4.5625 4.625q-2.640625 2.484375 -5.578125 4.21875q-2.921875 1.71875 -5.890625 1.71875zm22.468613 0.296875q-2.3125 0 -4.625 -1.625q-2.296875 -1.640625 -2.578125 -3.84375q-0.96875 -7.40625 9.3125 -17.578125q10.171875 -10.171875 18.328125 -10.171875q2.21875 0 3.46875 1.046875q0.671875 0.671875 1.0 1.828125q0.34375 1.15625 0.53125 1.15625q0.375 0 0.65625 -0.140625q0.296875 -0.140625 0.6875 -0.140625q1.15625 0 2.015625 0.859375q0.859375 0.859375 0.953125 1.53125q0.09375 0.1875 -6.140625 9.5q-6.234375 9.125 -5.65625 12.390625q0.46875 2.203125 2.109375 2.203125q4.984375 0 18.234375 -16.515625q0.296875 -0.375 0.578125 -0.375q0.484375 0 0.484375 0.671875q0 0.765625 -0.875 1.921875q-12.1875 16.40625 -18.71875 16.40625q-0.859375 0 -1.625 -0.28125q-4.21875 -1.625 -4.21875 -6.34375q0 -1.625 0.375 -3.25l-5.953125 5.75q-2.6875 2.6875 -4.84375 3.84375q-2.15625 1.15625 -3.5 1.15625zm-0.875 -2.109375q5.578125 0 15.171875 -12.203125l10.171875 -14.015625q-0.765625 -1.34375 -2.484375 -1.34375q-5.859375 0 -15.84375 9.40625q-10.375 9.609375 -9.3125 15.84375q0.484375 2.3125 2.296875 2.3125zm47.434982 19.765625q-4.03125 -2.203125 -4.03125 -8.34375q0 -6.625 10.84375 -22.65625q10.359375 -15.453125 14.390625 -16.703125q0.390625 -0.09375 0.671875 -0.140625q0.296875 -0.0625 0.578125 -0.0625q1.640625 0 1.640625 3.5625q0.671875 -0.671875 2.34375 -1.296875q1.6875 -0.625 3.453125 -1.0q1.78125 -0.390625 2.640625 -0.484375q3.9375 -0.203125 6.578125 1.859375q2.640625 2.0625 2.640625 5.421875q0 7.78125 -9.3125 15.078125q-8.4375 6.625 -14.96875 6.625q-4.328125 0 -5.953125 -0.484375q-2.3125 -0.671875 -4.703125 -3.546875q-1.0625 0.859375 -2.296875 2.921875q-1.25 2.0625 -2.359375 4.515625q-1.109375 2.453125 -1.828125 4.84375q-0.71875 2.40625 -0.71875 4.03125q0 1.640625 0.625 2.734375q0.625 1.109375 1.203125 2.078125q0 0.09375 0.046875 0.140625q0.046875 0.046875 0.046875 0.046875q0 0.484375 -0.53125 0.8125q-0.53125 0.34375 -1.0 0.046875zm16.21875 -20.828125q5.375 0 12.390625 -5.46875q8.25 -6.53125 8.25 -14.5q0 -3.640625 -4.515625 -3.640625q-4.125 0 -7.671875 1.8125q-0.96875 0.390625 -3.125 2.5q-2.15625 2.109375 -5.71875 5.765625q-7.578125 7.859375 -7.578125 10.078125q0 1.71875 3.171875 2.78125q2.109375 0.671875 4.796875 0.671875zm31.973236 3.171875q-2.3125 0 -4.625 -1.625q-2.296875 -1.640625 -2.578125 -3.84375q-0.96875 -7.40625 9.3125 -17.578125q10.17186 -10.171875 18.32811 -10.171875q2.21875 0 3.46875 1.046875q0.671875 0.671875 1.0 1.828125q0.34375 1.15625 0.53125 1.15625q0.375 0 0.65625 -0.140625q0.296875 -0.140625 0.6875 -0.140625q1.15625 0 2.015625 0.859375q0.859375 0.859375 0.953125 1.53125q0.09375 0.1875 -6.140625 9.5q-6.234375 9.125 -5.65625 12.390625q0.46875 2.203125 2.109375 2.203125q4.984375 0 18.234375 -16.515625q0.296875 -0.375 0.578125 -0.375q0.484375 0 0.484375 0.671875q0 0.765625 -0.875 1.921875q-12.1875 16.40625 -18.71875 16.40625q-0.859375 0 -1.625 -0.28125q-4.21875 -1.625 -4.21875 -6.34375q0 -1.625 0.375 -3.25l-5.953125 5.75q-2.6874847 2.6875 -4.8437347 3.84375q-2.15625 1.15625 -3.5 1.15625zm-0.875 -2.109375q5.578125 0 15.17186 -12.203125l10.171875 -14.015625q-0.765625 -1.34375 -2.484375 -1.34375q-5.859375 0 -15.843735 9.40625q-10.375 9.609375 -9.3125 15.84375q0.484375 2.3125 2.296875 2.3125zm38.88008 2.875q-3.0625 0 -5.5625 -1.96875q-2.5 -1.96875 -2.5 -5.234375q0 -6.8125 8.359375 -15.546875q8.546875 -8.84375 15.265625 -8.84375q2.203125 0 3.59375 1.203125q1.390625 1.203125 1.390625 2.9375q0 5.375 -8.546875 10.5625q-7.578125 4.59375 -12.765625 4.59375q-0.765625 0 -1.34375 -0.1875q-1.4375 2.59375 -1.4375 5.46875q0 5.0 4.703125 5.0q4.796875 0 12.390625 -6.4375q5.84375 -4.703125 9.984375 -9.984375q0.859375 -1.15625 1.53125 -1.15625q0.578125 0 0.578125 0.578125q0 0.578125 -0.765625 1.640625q-2.6875 3.546875 -5.765625 6.53125q-3.078125 2.96875 -6.625 5.46875q-7.390625 5.375 -12.484375 5.375zm0.578125 -14.40625q3.65625 0 9.5 -3.640625q1.921875 -1.34375 3.796875 -3.015625q1.875 -1.6875 3.078125 -3.40625q1.203125 -1.734375 1.203125 -3.078125q0 -1.25 -2.015625 -1.25q-2.890625 0 -8.078125 4.3125q-2.484375 2.109375 -4.796875 4.609375q-2.296875 2.5 -3.9375 5.28125q0.578125 0.1875 1.25 0.1875zm26.500122 13.34375q-2.78125 0 -5.1875 -1.390625q-2.390625 -1.390625 -2.390625 -4.65625q0 -4.515625 3.203125 -10.75q3.21875 -6.234375 7.34375 -12.953125q11.234375 -18.25 15.9375 -18.25q0.96875 0 1.96875 0.71875q1.015625 0.71875 1.109375 1.59375l-6.71875 9.015625q-3.9375 5.28125 -7.109375 9.75q-3.171875 4.46875 -5.46875 8.015625q-1.15625 1.828125 -2.59375 4.140625q-1.4375 2.296875 -2.546875 4.75q-1.09375 2.4375 -1.09375 4.9375q0 1.140625 0.671875 2.0625q0.671875 0.90625 2.390625 0.90625q3.078125 0 8.0625 -3.3125q5.0 -3.3125 9.890625 -9.171875q0.484375 -0.5625 1.0625 -1.046875q0.578125 -0.484375 0.953125 -0.484375q0.484375 0 0.484375 0.578125q0 0.28125 -0.625 1.109375q-0.625 0.8125 -1.015625 1.296875l-2.296875 2.578125q-1.921875 2.125 -4.5625 4.625q-2.640625 2.484375 -5.578125 4.21875q-2.921875 1.71875 -5.890625 1.71875zm23.328003 0q-2.78125 0 -5.1875 -1.390625q-2.390625 -1.390625 -2.390625 -4.65625q0 -4.515625 3.203125 -10.75q3.21875 -6.234375 7.34375 -12.953125q11.234375 -18.25 15.9375 -18.25q0.96875 0 1.96875 0.71875q1.015625 0.71875 1.109375 1.59375l-6.71875 9.015625q-3.9375 5.28125 -7.109375 9.75q-3.171875 4.46875 -5.46875 8.015625q-1.15625 1.828125 -2.59375 4.140625q-1.4375 2.296875 -2.546875 4.75q-1.09375 2.4375 -1.09375 4.9375q0 1.140625 0.671875 2.0625q0.671875 0.90625 2.390625 0.90625q3.078125 0 8.0625 -3.3125q5.0 -3.3125 9.890625 -9.171875q0.484375 -0.5625 1.0625 -1.046875q0.578125 -0.484375 0.953125 -0.484375q0.484375 0 0.484375 0.578125q0 0.28125 -0.625 1.109375q-0.625 0.8125 -1.015625 1.296875l-2.296875 2.578125q-1.921875 2.125 -4.5625 4.625q-2.640625 2.484375 -5.578125 4.21875q-2.921875 1.71875 -5.890625 1.71875zm22.468628 0.296875q-2.3125 0 -4.625 -1.625q-2.296875 -1.640625 -2.578125 -3.84375q-0.96875 -7.40625 9.3125 -17.578125q10.171875 -10.171875 18.328125 -10.171875q2.21875 0 3.46875 1.046875q0.671875 0.671875 1.0 1.828125q0.34375 1.15625 0.53125 1.15625q0.375 0 0.65625 -0.140625q0.296875 -0.140625 0.6875 -0.140625q1.15625 0 2.015625 0.859375q0.859375 0.859375 0.953125 1.53125q0.09375 0.1875 -6.140625 9.5q-6.234375 9.125 -5.65625 12.390625q0.46875 2.203125 2.109375 2.203125q4.984375 0 18.234375 -16.515625q0.296875 -0.375 0.578125 -0.375q0.484375 0 0.484375 0.671875q0 0.765625 -0.875 1.921875q-12.1875 16.40625 -18.71875 16.40625q-0.859375 0 -1.625 -0.28125q-4.21875 -1.625 -4.21875 -6.34375q0 -1.625 0.375 -3.25l-5.953125 5.75q-2.6875 2.6875 -4.84375 3.84375q-2.15625 1.15625 -3.5 1.15625zm-0.875 -2.109375q5.578125 0 15.171875 -12.203125l10.171875 -14.015625q-0.765625 -1.34375 -2.484375 -1.34375q-5.859375 0 -15.84375 9.40625q-10.375 9.609375 -9.3125 15.84375q0.484375 2.3125 2.296875 2.3125z" fill-rule="nonzero"/><path fill="#000000" fill-opacity="0.0" d="m0.00524947 36.75328l399.99292 0l0 142.20193l-399.99292 0z" fill-rule="evenodd"/><path fill="#000000" d="m44.108047 150.22078q-0.5 0 -0.5 -1.0q0 -3.34375 5.671875 -17.03125q1.71875 -3.953125 3.4375 -7.90625q1.71875 -3.953125 3.34375 -7.90625l4.671875 -13.671875q1.109375 -3.453125 1.765625 -5.921875q0.65625 -2.484375 0.65625 -4.109375q0 -7.09375 -4.0625 -10.6875q-4.046875 -3.59375 -10.734375 -3.59375q-6.28125 0 -12.40625 2.78125q-6.125 2.78125 -11.140625 7.546875q-5.015625 4.765625 -8.0625 10.640625q-4.359375 8.3125 -4.359375 15.203125q0 4.765625 2.328125 8.609375q2.34375 3.84375 6.078125 5.265625q2.640625 0.921875 5.171875 0.921875q3.546875 0 6.578125 -1.578125q3.046875 -1.578125 4.921875 -4.40625q1.875 -2.84375 1.875 -6.390625q0 -0.40625 0 -0.859375q0 -0.453125 -0.09375 -0.859375q-0.40625 -1.21875 0.609375 -1.21875q1.109375 0 1.203125 1.625q0.109375 0.40625 0.15625 0.8125q0.046875 0.40625 0.046875 0.90625q0 3.65625 -2.4375 6.796875q-2.421875 3.140625 -6.21875 5.125q-3.796875 1.96875 -7.859375 1.96875q-4.140625 0 -8.0 -2.03125q-8.203125 -4.453125 -8.203125 -15.5q0 -7.90625 4.25 -15.296875q3.859375 -6.6875 10.03125 -11.65625q6.1875 -4.96875 13.578125 -7.75q7.40625 -2.796875 14.6875 -2.796875q5.078125 0 9.125 1.578125q4.0625 1.5625 6.4375 4.765625q2.375 3.1875 2.375 8.15625q0 9.421875 -8.5 28.265625q-9.734375 21.375 -9.734375 24.015625q0 0.703125 0.5 0.5q2.640625 -1.71875 23.8125 -27.15625q10.84375 -12.96875 18.390625 -21.015625q7.5625 -8.0625 11.90625 -11.203125q3.859375 -2.9375 6.6875 -4.8125q2.84375 -1.875 4.5625 -2.890625q6.28125 -3.4375 11.5625 -3.4375q2.328125 0 3.59375 0.453125q1.265625 0.453125 1.265625 2.484375q0 1.3125 -0.921875 1.3125q-0.296875 0 -1.421875 -0.453125q-1.109375 -0.453125 -2.21875 -0.453125q-5.375 0 -11.25 3.140625q-11.75 6.28125 -26.953125 22.5q-4.359375 4.65625 -10.1875 11.546875q-5.8125 6.890625 -13.109375 16.109375q-11.5625 14.59375 -13.890625 15.90625q-4.359375 2.53125 -6.546875 3.59375q-2.171875 1.0625 -2.46875 1.0625zm43.057037 -6.6875q-2.421875 0 -4.859375 -1.71875q-2.421875 -1.71875 -2.734375 -4.046875q-1.015625 -7.8125 9.828125 -18.546875q10.75 -10.734375 19.359375 -10.734375q2.328125 0 3.640625 1.109375q0.71875 0.703125 1.0625 1.921875q0.359375 1.21875 0.5625 1.21875q0.40625 0 0.703125 -0.140625q0.3125 -0.15625 0.71875 -0.15625q1.21875 0 2.125 0.90625q0.90625 0.90625 1.015625 1.625q0.09375 0.203125 -6.484375 10.03125q-6.59375 9.625 -5.984375 13.0625q0.515625 2.328125 2.234375 2.328125q5.265625 0 19.25 -17.421875q0.296875 -0.40625 0.609375 -0.40625q0.5 0 0.5 0.703125q0 0.8125 -0.90625 2.03125q-12.875 17.328125 -19.765625 17.328125q-0.90625 0 -1.71875 -0.296875q-4.453125 -1.734375 -4.453125 -6.6875q0 -1.734375 0.40625 -3.453125l-6.28125 6.078125q-2.84375 2.84375 -5.125 4.0625q-2.28125 1.203125 -3.703125 1.203125zm-0.90625 -2.21875q5.875 0 16.015625 -12.875l10.734375 -14.796875q-0.8125 -1.40625 -2.625 -1.40625q-6.1875 0 -16.71875 9.921875q-10.953125 10.140625 -9.84375 16.71875q0.515625 2.4375 2.4375 2.4375zm43.575317 1.921875q-2.9375 0 -5.46875 -1.46875q-2.53125 -1.46875 -2.53125 -4.921875q0 -4.75 3.390625 -11.328125q3.390625 -6.59375 7.75 -13.6875q11.859375 -19.265625 16.8125 -19.265625q1.015625 0 2.078125 0.765625q1.0625 0.765625 1.171875 1.671875l-7.09375 9.53125q-4.15625 5.5625 -7.5 10.28125q-3.34375 4.703125 -5.78125 8.453125q-1.203125 1.9375 -2.734375 4.375q-1.515625 2.421875 -2.6875 5.015625q-1.15625 2.578125 -1.15625 5.203125q0 1.21875 0.703125 2.1875q0.71875 0.953125 2.53125 0.953125q3.25 0 8.515625 -3.484375q5.265625 -3.5 10.4375 -9.6875q0.515625 -0.609375 1.109375 -1.109375q0.609375 -0.515625 1.015625 -0.515625q0.515625 0 0.515625 0.609375q0 0.3125 -0.671875 1.171875q-0.65625 0.859375 -1.0625 1.375l-2.421875 2.734375q-2.03125 2.21875 -4.828125 4.859375q-2.78125 2.640625 -5.875 4.46875q-3.078125 1.8125 -6.21875 1.8125zm22.091492 1.109375q-3.25 0 -5.875 -2.078125q-2.640625 -2.078125 -2.640625 -5.515625q0 -7.203125 8.8125 -16.421875q9.015625 -9.3125 16.109375 -9.3125q2.328125 0 3.796875 1.265625q1.484375 1.265625 1.484375 3.09375q0 5.671875 -9.03125 11.140625q-8.0 4.859375 -13.46875 4.859375q-0.8125 0 -1.421875 -0.203125q-1.515625 2.734375 -1.515625 5.78125q0 5.265625 4.96875 5.265625q5.0625 0 13.0625 -6.78125q6.1875 -4.96875 10.546875 -10.546875q0.90625 -1.21875 1.609375 -1.21875q0.609375 0 0.609375 0.609375q0 0.609375 -0.8125 1.734375q-2.828125 3.734375 -6.078125 6.890625q-3.234375 3.140625 -6.984375 5.765625q-7.8125 5.671875 -13.171875 5.671875zm0.609375 -15.1875q3.84375 0 10.03125 -3.859375q2.015625 -1.421875 3.984375 -3.1875q1.984375 -1.78125 3.25 -3.59375q1.265625 -1.828125 1.265625 -3.25q0 -1.3125 -2.125 -1.3125q-3.03125 0 -8.515625 4.5625q-2.625 2.21875 -5.0625 4.859375q-2.421875 2.640625 -4.15625 5.578125q0.609375 0.203125 1.328125 0.203125zm46.103836 14.078125q-2.734375 0 -3.859375 -1.5625q-1.109375 -1.578125 -1.109375 -3.90625q0 -5.875 4.046875 -12.5625l6.484375 -10.546875q-6.890625 5.0625 -13.671875 12.671875q-1.828125 2.03125 -4.109375 4.765625q-2.28125 2.734375 -5.015625 6.28125q-3.640625 4.75 -4.359375 4.75q-1.40625 0 -2.328125 -1.265625q-0.90625 -1.265625 -0.90625 -2.265625q0 -0.8125 0.5 -2.984375q0.515625 -2.1875 1.21875 -3.8125q0.703125 -1.71875 1.46875 -3.390625q0.765625 -1.671875 1.46875 -3.296875l-6.078125 6.390625q-0.203125 0.203125 -1.21875 1.21875q-1.015625 1.0 -1.625 1.0q-0.5 0 -0.5 -0.703125q0 -0.203125 0.15625 -0.5625q0.15625 -0.359375 0.65625 -0.859375q1.515625 -1.515625 3.140625 -3.234375q1.625 -1.734375 3.34375 -3.953125q0.90625 -1.125 2.734375 -3.40625q1.828125 -2.28125 4.0 -4.90625q2.1875 -2.640625 4.109375 -4.859375q0.5 -0.71875 1.109375 -0.96875q0.609375 -0.25 0.8125 -0.25q2.734375 0 2.734375 2.125q0 0.609375 -0.296875 1.21875q-9.125 12.5625 -10.953125 19.140625q11.765625 -11.75 18.90625 -17.671875q7.140625 -5.9375 10.1875 -5.9375q1.609375 0 2.46875 0.515625q0.875 0.5 0.875 1.921875q0 0.5 -0.109375 0.8125q-0.296875 0.703125 -4.15625 5.671875q-2.328125 2.84375 -4.109375 5.171875q-1.765625 2.328125 -2.875 4.046875q-1.828125 2.84375 -2.75 5.328125q-0.90625 2.484375 -0.90625 4.203125q0 0.703125 0.203125 1.71875q0.203125 1.015625 1.21875 1.015625q2.328125 0 7.296875 -4.046875q2.328125 -2.03125 4.359375 -4.109375q2.03125 -2.078125 3.84375 -4.109375q0.40625 -0.40625 1.3125 -1.5625q0.921875 -1.171875 1.125 -1.171875q0.40625 0 0.40625 0.8125q0 0.40625 -0.46875 1.375q-0.453125 0.953125 -0.953125 1.46875q-1.109375 1.3125 -3.296875 3.640625q-2.171875 2.328125 -4.859375 4.765625q-2.6875 2.421875 -5.21875 4.15625q-2.53125 1.71875 -4.453125 1.71875zm22.69461 1.109375q-3.25 0 -5.890625 -2.078125q-2.625 -2.078125 -2.625 -5.515625q0 -7.203125 8.8125 -16.421875q9.015625 -9.3125 16.109375 -9.3125q2.4375 0 3.859375 1.265625q1.421875 1.265625 1.421875 3.09375q0 2.53125 -1.21875 4.65625q-1.421875 2.640625 -4.0625 2.640625q-2.625 0 -2.625 -1.625q0 -1.125 1.3125 -3.34375q1.421875 -2.328125 1.421875 -2.4375q0 -0.203125 -0.3125 -0.203125q-2.828125 0.3125 -7.890625 4.15625q-2.234375 1.71875 -3.90625 3.25q-1.671875 1.515625 -2.6875 2.9375l-3.953125 5.765625q-0.609375 0.921875 -1.265625 3.15625q-0.65625 2.21875 -0.65625 3.328125q0 2.03125 1.359375 3.359375q1.375 1.3125 3.5 1.3125q5.078125 0 13.375 -6.59375q6.6875 -5.265625 10.75 -10.640625q0.5 -0.609375 1.21875 -0.609375q0.703125 0 0.703125 0.40625q0 0.3125 -0.515625 1.015625q-5.5625 7.390625 -13.0625 12.765625q-8.0 5.671875 -13.171875 5.671875zm43.363373 -36.171875q-1.71875 0 -2.984375 -1.109375q-1.265625 -1.125 -1.265625 -2.53125q0 -2.84375 3.84375 -2.84375q1.421875 0 2.84375 0.96875q1.421875 0.953125 1.421875 2.375q0 1.21875 -1.328125 2.1875q-1.3125 0.953125 -2.53125 0.953125zm-18.750015 35.96875q-2.21875 0 -3.6875 -1.46875q-1.46875 -1.46875 -1.46875 -5.21875q0 -2.125 0.96875 -4.90625q0.953125 -2.796875 2.421875 -5.625q1.46875 -2.84375 2.890625 -5.0625q5.671875 -9.234375 9.312515 -9.328125q0.921875 0 2.234375 0.765625q1.3125 0.75 1.3125 1.671875q0 0 -7.6875153 9.921875q-7.609375 9.828125 -7.609375 13.984375q0 3.25 2.53125 3.25q1.625 0 4.203125 -1.359375q2.59375 -1.375 5.4218903 -3.5q2.84375 -2.140625 5.421875 -4.5625q2.59375 -2.4375 4.203125 -4.46875q1.015625 -1.3125 1.78125 -1.8125q0.765625 -0.515625 0.96875 -0.515625q0.390625 0 0.390625 0.609375q0 0.5 -1.171875 2.03125q-1.15625 1.515625 -3.171875 3.546875q-2.4375 2.421875 -5.375 5.265625q-2.9375 2.828125 -6.3906403 4.8125q-3.4375 1.96875 -7.5 1.96875zm26.040787 -0.609375q-2.421875 0 -4.859375 -1.71875q-2.421875 -1.71875 -2.734375 -4.046875q-1.015625 -7.8125 9.828125 -18.546875q10.75 -10.734375 19.359375 -10.734375q2.328125 0 3.640625 1.109375q0.71875 0.703125 1.0625 1.921875q0.359375 1.21875 0.5625 1.21875q0.40625 0 0.703125 -0.140625q0.3125 -0.15625 0.71875 -0.15625q1.21875 0 2.125 0.90625q0.90625 0.90625 1.015625 1.625q0.09375 0.203125 -6.484375 10.03125q-6.59375 9.625 -5.984375 13.0625q0.515625 2.328125 2.234375 2.328125q5.265625 0 19.25 -17.421875q0.296875 -0.40625 0.609375 -0.40625q0.5 0 0.5 0.703125q0 0.8125 -0.90625 2.03125q-12.875 17.328125 -19.765625 17.328125q-0.90625 0 -1.71875 -0.296875q-4.453125 -1.734375 -4.453125 -6.6875q0 -1.734375 0.40625 -3.453125l-6.28125 6.078125q-2.84375 2.84375 -5.125 4.0625q-2.28125 1.203125 -3.703125 1.203125zm-0.90625 -2.21875q5.875 0 16.015625 -12.875l10.734375 -14.796875q-0.8125 -1.40625 -2.625 -1.40625q-6.1875 0 -16.71875 9.921875q-10.953125 10.140625 -9.84375 16.71875q0.515625 2.4375 2.4375 2.4375zm61.715942 1.921875q-2.734375 0 -3.859375 -1.5625q-1.109375 -1.578125 -1.109375 -3.90625q0 -5.875 4.046875 -12.5625l6.484375 -10.546875q-6.890625 5.0625 -13.671875 12.671875q-1.828125 2.03125 -4.109375 4.765625q-2.28125 2.734375 -5.015625 6.28125q-3.640625 4.75 -4.359375 4.75q-1.40625 0 -2.328125 -1.265625q-0.90625 -1.265625 -0.90625 -2.265625q0 -0.8125 0.5 -2.984375q0.515625 -2.1875 1.21875 -3.8125q0.703125 -1.71875 1.46875 -3.390625q0.765625 -1.671875 1.46875 -3.296875l-6.078125 6.390625q-0.203125 0.203125 -1.21875 1.21875q-1.015625 1.0 -1.625 1.0q-0.5 0 -0.5 -0.703125q0 -0.203125 0.15625 -0.5625q0.15625 -0.359375 0.65625 -0.859375q1.515625 -1.515625 3.140625 -3.234375q1.625 -1.734375 3.34375 -3.953125q0.90625 -1.125 2.734375 -3.40625q1.828125 -2.28125 4.0 -4.90625q2.1875 -2.640625 4.109375 -4.859375q0.5 -0.71875 1.109375 -0.96875q0.609375 -0.25 0.8125 -0.25q2.734375 0 2.734375 2.125q0 0.609375 -0.296875 1.21875q-9.125 12.5625 -10.953125 19.140625q11.765625 -11.75 18.90625 -17.671875q7.140625 -5.9375 10.1875 -5.9375q1.609375 0 2.46875 0.515625q0.875 0.5 0.875 1.921875q0 0.5 -0.109375 0.8125q-0.296875 0.703125 -4.15625 5.671875q-2.328125 2.84375 -4.109375 5.171875q-1.765625 2.328125 -2.875 4.046875q-1.828125 2.84375 -2.75 5.328125q-0.90625 2.484375 -0.90625 4.203125q0 0.703125 0.203125 1.71875q0.203125 1.015625 1.21875 1.015625q2.328125 0 7.296875 -4.046875q2.328125 -2.03125 4.359375 -4.109375q2.03125 -2.078125 3.84375 -4.109375q0.40625 -0.40625 1.3125 -1.5625q0.921875 -1.171875 1.125 -1.171875q0.40625 0 0.40625 0.8125q0 0.40625 -0.46875 1.375q-0.453125 0.953125 -0.953125 1.46875q-1.109375 1.3125 -3.296875 3.640625q-2.171875 2.328125 -4.859375 4.765625q-2.6875 2.421875 -5.21875 4.15625q-2.53125 1.71875 -4.453125 1.71875zm21.772766 0.296875q-2.421875 0 -4.859375 -1.71875q-2.421875 -1.71875 -2.734375 -4.046875q-1.015625 -7.8125 9.828125 -18.546875q10.75 -10.734375 19.359375 -10.734375q2.328125 0 3.640625 1.109375q0.71875 0.703125 1.0625 1.921875q0.359375 1.21875 0.5625 1.21875q0.40625 0 0.703125 -0.140625q0.3125 -0.15625 0.71875 -0.15625q1.21875 0 2.125 0.90625q0.90625 0.90625 1.015625 1.625q0.09375 0.203125 -6.484375 10.03125q-6.59375 9.625 -5.984375 13.0625q0.515625 2.328125 2.234375 2.328125q5.265625 0 19.25 -17.421875q0.296875 -0.40625 0.609375 -0.40625q0.5 0 0.5 0.703125q0 0.8125 -0.90625 2.03125q-12.875 17.328125 -19.765625 17.328125q-0.90625 0 -1.71875 -0.296875q-4.453125 -1.734375 -4.453125 -6.6875q0 -1.734375 0.40625 -3.453125l-6.28125 6.078125q-2.84375 2.84375 -5.125 4.0625q-2.28125 1.203125 -3.703125 1.203125zm-0.90625 -2.21875q5.875 0 16.015625 -12.875l10.734375 -14.796875q-0.8125 -1.40625 -2.625 -1.40625q-6.1875 0 -16.71875 9.921875q-10.953125 10.140625 -9.84375 16.71875q0.515625 2.4375 2.4375 2.4375z" fill-rule="nonzero"/></g></svg>