<svg version="1.1" viewBox="0.0 0.0 400.0 150.0" fill="none" stroke="none" stroke-linecap="square" stroke-miterlimit="10" xmlns:xlink="http://www.w3.org/1999/xlink" xmlns="http://www.w3.org/2000/svg"><clipPath id="p.0"><path d="m0 0l400.0 0l0 150.0l-400.0 0l0 -150.0z" clip-rule="nonzero"/></clipPath><g clip-path="url(#p.0)"><path fill="#000000" fill-opacity="0.0" d="m0 0l400.0 0l0 150.0l-400.0 0z" fill-rule="evenodd"/><path fill="#000000" fill-opacity="0.0" d="m4.4777784 -27.273438l391.0551 0l0 118.33071l-391.0551 0z" fill-rule="evenodd"/><path fill="#000000" d="m31.887842 74.28218q-13.96875 -1.171875 -13.96875 -14.328125q0 -7.796875 4.90625 -16.5q2.890625 -5.25 7.28125 -10.234375q4.406252 -4.984375 9.609377 -9.015625q5.21875 -4.046875 10.703125 -6.390625q5.484375 -2.359375 10.5625 -2.359375q8.984371 0 8.984371 6.609375q0 4.4375 -2.734375 9.875q-2.71875 5.453125 -5.515621 6.890625q-0.28125 0.09375 -0.640625 0.09375q-0.265625 0 -0.265625 -0.171875l2.984375 -4.90625q3.0781212 -5.078125 3.0781212 -8.875q0 -2.71875 -1.453125 -5.171875q-1.4374962 -2.453125 -5.156246 -2.453125q-4.53125 0 -9.296875 2.546875q-4.765625 2.53125 -9.203125 6.703125q-4.4375 4.171875 -8.0625 9.203125q-3.625002 5.03125 -5.812502 9.921875q-4.609375 10.4375 -4.609375 16.875q0 9.6875 9.875002 9.6875q9.421875 0 25.5625 -12.140625q3.71875 -2.8125 9.562496 -7.890625q5.84375 -5.078125 13.734375 -12.328125q-1.078125 0.09375 -2.71875 0.234375q-1.625 0.125 -3.8125 0.484375q-0.90625 0.1875 -1.71875 0.328125q-0.8125 0.125 -1.53125 0.125q-1.8125 -0.171875 -1.546875 -0.90625q0.359375 -3.34375 3.4375 -3.34375q2.8125 0.359375 5.296875 0.546875q2.5 0.171875 4.765625 0.171875q3.546875 -3.265625 9.390625 -9.109375q5.84375 -5.84375 13.921875 -14.359375q10.421875 -10.984375 12.6875 -10.984375q1.0 0 1.0 1.828125q0 0.71875 -0.1875 1.8125q-0.1875 1.078125 -0.546875 2.53125q-0.90625 3.4375 -1.90625 4.171875q-2.796875 2.0 -4.65625 5.125q-1.859375 3.125 -3.765625 6.9375q-1.90625 3.890625 -3.5 6.9375q-1.578125 3.03125 -2.84375 5.390625l8.78125 -0.1875q3.265625 0 3.265625 0.453125q0 0.09375 -0.171875 0.265625q-1.546875 1.0 -13.0625 1.8125q-8.421875 16.421875 -8.421875 22.484375q0 4.171875 2.625 4.171875q1.0 0 2.53125 -1.265625q1.453125 -1.171875 1.8125 -1.171875q0 -0.1875 0.09375 -0.09375q0.09375 0.09375 -0.09375 0.09375q-0.453125 1.625 -2.671875 2.9375q-2.21875 1.3125 -4.671875 1.3125q-2.265625 0 -2.984375 -1.453125q-0.71875 -1.4375 -0.71875 -3.984375q0 -9.15625 6.96875 -23.296875l-10.875 0.265625q-12.140625 11.890625 -24.390621 20.859375q-19.484375 14.140625 -29.906252 13.234375zm66.0 -36.71875q1.078125 -2.078125 4.34375 -7.5625q3.265625 -5.484375 8.796875 -14.28125l-23.203125 21.75l10.0625 0.09375zm37.43499 26.390625q-2.625 0 -4.890625 -1.3125q-2.265625 -1.328125 -2.265625 -4.40625q0 -4.265625 3.03125 -10.15625q3.03125 -5.890625 6.9375 -12.234375q10.609375 -17.21875 15.046875 -17.21875q0.90625 0 1.859375 0.6875q0.953125 0.671875 1.046875 1.484375l-6.359375 8.515625q-3.703125 4.984375 -6.703125 9.203125q-2.984375 4.21875 -5.171875 7.578125q-1.078125 1.71875 -2.4375 3.890625q-1.359375 2.171875 -2.40625 4.484375q-1.046875 2.3125 -1.046875 4.671875q0 1.09375 0.640625 1.953125q0.640625 0.859375 2.265625 0.859375q2.90625 0 7.609375 -3.125q4.71875 -3.125 9.34375 -8.65625q0.453125 -0.546875 1.0 -1.0q0.546875 -0.453125 0.90625 -0.453125q0.453125 0 0.453125 0.546875q0 0.265625 -0.59375 1.046875q-0.59375 0.765625 -0.953125 1.21875l-2.171875 2.4375q-1.8125 2.0 -4.3125 4.359375q-2.484375 2.359375 -5.25 4.0q-2.765625 1.625 -5.578125 1.625zm21.21698 0.265625q-2.1875 0 -4.359375 -1.53125q-2.171875 -1.546875 -2.4375 -3.640625q-0.90625 -6.96875 8.78125 -16.578125q9.609375 -9.609375 17.328125 -9.609375q2.078125 0 3.25 0.984375q0.640625 0.640625 0.953125 1.734375q0.328125 1.078125 0.5 1.078125q0.359375 0 0.625 -0.125q0.28125 -0.140625 0.640625 -0.140625q1.09375 0 1.90625 0.8125q0.828125 0.8125 0.90625 1.453125q0.09375 0.171875 -5.796875 8.96875q-5.890625 8.609375 -5.34375 11.703125q0.453125 2.078125 1.984375 2.078125q4.71875 0 17.234375 -15.59375q0.265625 -0.359375 0.546875 -0.359375q0.453125 0 0.453125 0.640625q0 0.71875 -0.828125 1.8125q-11.515625 15.5 -17.671875 15.5q-0.8125 0 -1.546875 -0.28125q-3.984375 -1.53125 -3.984375 -5.984375q0 -1.53125 0.359375 -3.078125l-5.609375 5.4375q-2.546875 2.546875 -4.59375 3.640625q-2.03125 1.078125 -3.296875 1.078125zm-0.8125 -2.0q5.25 0 14.3125 -11.5l9.609375 -13.25q-0.71875 -1.265625 -2.359375 -1.265625q-5.53125 0 -14.953125 8.890625q-9.796875 9.0625 -8.796875 14.953125q0.453125 2.171875 2.1875 2.171875zm44.76909 18.6875q-3.796875 -2.09375 -3.796875 -7.890625q0 -6.265625 10.234375 -21.390625q9.796875 -14.609375 13.609375 -15.78125q0.359375 -0.09375 0.625 -0.140625q0.28125 -0.046875 0.546875 -0.046875q1.546875 0 1.546875 3.359375q0.625 -0.640625 2.203125 -1.21875q1.59375 -0.59375 3.265625 -0.953125q1.6875 -0.359375 2.5 -0.453125q3.71875 -0.1875 6.203125 1.765625q2.5 1.953125 2.5 5.125q0 7.34375 -8.78125 14.234375q-7.984375 6.25 -14.15625 6.25q-4.078125 0 -5.609375 -0.453125q-2.1875 -0.640625 -4.453125 -3.359375q-0.984375 0.828125 -2.15625 2.78125q-1.1875 1.9375 -2.234375 4.25q-1.046875 2.3125 -1.71875 4.578125q-0.6875 2.265625 -0.6875 3.8125q0 1.53125 0.59375 2.578125q0.59375 1.046875 1.140625 1.953125q0 0.09375 0.046875 0.125q0.03125 0.046875 0.03125 0.046875q0 0.453125 -0.5 0.765625q-0.5 0.328125 -0.953125 0.0625zm15.328125 -19.671875q5.078125 0 11.6875 -5.171875q7.796875 -6.171875 7.796875 -13.6875q0 -3.453125 -4.25 -3.453125q-3.90625 0 -7.25 1.71875q-0.90625 0.375 -2.953125 2.375q-2.046875 1.984375 -5.390625 5.421875q-7.171875 7.4375 -7.171875 9.53125q0 1.625 3.0 2.625q2.0 0.640625 4.53125 0.640625zm30.193039 2.984375q-2.1875 0 -4.359375 -1.53125q-2.171875 -1.546875 -2.4375 -3.640625q-0.90625 -6.96875 8.78125 -16.578125q9.60936 -9.609375 17.32814 -9.609375q2.078125 0 3.25 0.984375q0.640625 0.640625 0.953125 1.734375q0.328125 1.078125 0.5 1.078125q0.359375 0 0.625 -0.125q0.28125 -0.140625 0.640625 -0.140625q1.09375 0 1.90625 0.8125q0.828125 0.8125 0.90625 1.453125q0.09375 0.171875 -5.796875 8.96875q-5.890625 8.609375 -5.34375 11.703125q0.453125 2.078125 1.984375 2.078125q4.71875 0 17.234375 -15.59375q0.265625 -0.359375 0.546875 -0.359375q0.453125 0 0.453125 0.640625q0 0.71875 -0.828125 1.8125q-11.515625 15.5 -17.671875 15.5q-0.8125 0 -1.546875 -0.28125q-3.9844055 -1.53125 -3.9844055 -5.984375q0 -1.53125 0.359375 -3.078125l-5.6093597 5.4375q-2.546875 2.546875 -4.59375 3.640625q-2.03125 1.078125 -3.296875 1.078125zm-0.8125 -2.0q5.25 0 14.312485 -11.5l9.6094055 -13.25q-0.71875 -1.265625 -2.359375 -1.265625q-5.53125 0 -14.95314 8.890625q-9.796875 9.0625 -8.796875 14.953125q0.453125 2.171875 2.1875 2.171875zm36.709763 2.71875q-2.90625 0 -5.25 -1.84375q-2.359375 -1.859375 -2.359375 -4.953125q0 -6.4375 7.875 -14.6875q8.078125 -8.328125 14.421875 -8.328125q2.078125 0 3.390625 1.140625q1.328125 1.125 1.328125 2.75q0 5.078125 -8.078125 9.96875q-7.15625 4.359375 -12.0625 4.359375q-0.71875 0 -1.265625 -0.1875q-1.359375 2.453125 -1.359375 5.171875q0 4.71875 4.453125 4.71875q4.53125 0 11.6875 -6.078125q5.53125 -4.4375 9.421875 -9.4375q0.828125 -1.078125 1.453125 -1.078125q0.546875 0 0.546875 0.546875q0 0.53125 -0.71875 1.53125q-2.546875 3.359375 -5.453125 6.171875q-2.890625 2.8125 -6.25 5.171875q-6.984375 5.0625 -11.78125 5.0625zm0.546875 -13.59375q3.4375 0 8.96875 -3.4375q1.8125 -1.28125 3.578125 -2.859375q1.765625 -1.59375 2.890625 -3.21875q1.140625 -1.640625 1.140625 -2.90625q0 -1.171875 -1.890625 -1.171875q-2.71875 0 -7.625 4.078125q-2.359375 2.0 -4.53125 4.359375q-2.171875 2.34375 -3.71875 4.984375q0.546875 0.171875 1.1875 0.171875zm25.017395 12.609375q-2.625 0 -4.890625 -1.3125q-2.265625 -1.328125 -2.265625 -4.40625q0 -4.265625 3.03125 -10.15625q3.03125 -5.890625 6.9375 -12.234375q10.609375 -17.21875 15.046875 -17.21875q0.90625 0 1.859375 0.6875q0.953125 0.671875 1.046875 1.484375l-6.359375 8.515625q-3.703125 4.984375 -6.703125 9.203125q-2.984375 4.21875 -5.171875 7.578125q-1.078125 1.71875 -2.4375 3.890625q-1.359375 2.171875 -2.40625 4.484375q-1.046875 2.3125 -1.046875 4.671875q0 1.09375 0.640625 1.953125q0.640625 0.859375 2.265625 0.859375q2.90625 0 7.609375 -3.125q4.71875 -3.125 9.34375 -8.65625q0.453125 -0.546875 1.0 -1.0q0.546875 -0.453125 0.90625 -0.453125q0.453125 0 0.453125 0.546875q0 0.265625 -0.59375 1.046875q-0.59375 0.765625 -0.953125 1.21875l-2.171875 2.4375q-1.8125 2.0 -4.3125 4.359375q-2.484375 2.359375 -5.25 4.0q-2.765625 1.625 -5.578125 1.625zm22.02948 0q-2.625 0 -4.890625 -1.3125q-2.265625 -1.328125 -2.265625 -4.40625q0 -4.265625 3.03125 -10.15625q3.03125 -5.890625 6.9375 -12.234375q10.609375 -17.21875 15.046875 -17.21875q0.90625 0 1.859375 0.6875q0.953125 0.671875 1.046875 1.484375l-6.359375 8.515625q-3.703125 4.984375 -6.703125 9.203125q-2.984375 4.21875 -5.171875 7.578125q-1.078125 1.71875 -2.4375 3.890625q-1.359375 2.171875 -2.40625 4.484375q-1.046875 2.3125 -1.046875 4.671875q0 1.09375 0.640625 1.953125q0.640625 0.859375 2.265625 0.859375q2.90625 0 7.609375 -3.125q4.71875 -3.125 9.34375 -8.65625q0.453125 -0.546875 1.0 -1.0q0.546875 -0.453125 0.90625 -0.453125q0.453125 0 0.453125 0.546875q0 0.265625 -0.59375 1.046875q-0.59375 0.765625 -0.953125 1.21875l-2.171875 2.4375q-1.8125 2.0 -4.3125 4.359375q-2.484375 2.359375 -5.25 4.0q-2.765625 1.625 -5.578125 1.625zm21.21698 0.265625q-2.1875 0 -4.359375 -1.53125q-2.171875 -1.546875 -2.4375 -3.640625q-0.90625 -6.96875 8.78125 -16.578125q9.609375 -9.609375 17.328125 -9.609375q2.078125 0 3.25 0.984375q0.640625 0.640625 0.953125 1.734375q0.328125 1.078125 0.5 1.078125q0.359375 0 0.625 -0.125q0.28125 -0.140625 0.640625 -0.140625q1.09375 0 1.90625 0.8125q0.828125 0.8125 0.90625 1.453125q0.09375 0.171875 -5.796875 8.96875q-5.890625 8.609375 -5.34375 11.703125q0.453125 2.078125 1.984375 2.078125q4.71875 0 17.234375 -15.59375q0.265625 -0.359375 0.546875 -0.359375q0.453125 0 0.453125 0.640625q0 0.71875 -0.828125 1.8125q-11.515625 15.5 -17.671875 15.5q-0.8125 0 -1.546875 -0.28125q-3.984375 -1.53125 -3.984375 -5.984375q0 -1.53125 0.359375 -3.078125l-5.609375 5.4375q-2.546875 2.546875 -4.59375 3.640625q-2.03125 1.078125 -3.296875 1.078125zm-0.8125 -2.0q5.25 0 14.3125 -11.5l9.609375 -13.25q-0.71875 -1.265625 -2.359375 -1.265625q-5.53125 0 -14.953125 8.890625q-9.796875 9.0625 -8.796875 14.953125q0.453125 2.171875 2.1875 2.171875z" fill-rule="nonzero"/><path fill="#000000" fill-opacity="0.0" d="m0 35.727036l391.0551 0l0 129.29134l-391.0551 0z" fill-rule="evenodd"/><path fill="#000000" d="m56.048706 138.20453q-0.453125 0 -0.453125 -0.90625q0 -3.0 5.078125 -15.234375q1.546875 -3.53125 3.078125 -7.0625q1.546875 -3.546875 3.0 -7.078125l4.171875 -12.234375q1.0 -3.078125 1.578125 -5.296875q0.59375 -2.234375 0.59375 -3.6875q0 -6.34375 -3.625 -9.5625q-3.625 -3.21875 -9.609375 -3.21875q-5.625 0 -11.109375 2.5q-5.484375 2.484375 -9.96875 6.75q-4.484375 4.265625 -7.203125 9.515625q-3.90625 7.4375 -3.90625 13.609375q0 4.25 2.078125 7.703125q2.09375 3.4375 5.453125 4.71875q2.359375 0.8125 4.625 0.8125q3.171875 0 5.890625 -1.40625q2.71875 -1.40625 4.390625 -3.9375q1.6875 -2.546875 1.6875 -5.71875q0 -0.359375 0 -0.765625q0 -0.421875 -0.09375 -0.78125q-0.359375 -1.078125 0.546875 -1.078125q0.984375 0 1.078125 1.4375q0.09375 0.375 0.140625 0.734375q0.046875 0.359375 0.046875 0.8125q0 3.265625 -2.1875 6.078125q-2.171875 2.8125 -5.578125 4.578125q-3.390625 1.765625 -7.015625 1.765625q-3.71875 0 -7.15625 -1.8125q-7.34375 -3.984375 -7.34375 -13.875q0 -7.0625 3.796875 -13.6875q3.453125 -5.984375 8.984375 -10.421875q5.53125 -4.4375 12.140625 -6.9375q6.625 -2.5 13.15625 -2.5q4.53125 0 8.15625 1.40625q3.625 1.40625 5.75 4.265625q2.140625 2.859375 2.140625 7.296875q0 8.4375 -7.625 25.296875q-8.703125 19.125 -8.703125 21.484375q0 0.640625 0.453125 0.453125q2.359375 -1.546875 21.3125 -24.296875q9.6875 -11.609375 16.4375 -18.8125q6.765625 -7.203125 10.65625 -10.015625q3.453125 -2.625 5.984375 -4.296875q2.546875 -1.6875 4.078125 -2.59375q5.625 -3.078125 10.34375 -3.078125q2.078125 0 3.203125 0.40625q1.140625 0.40625 1.140625 2.21875q0 1.1875 -0.8125 1.1875q-0.265625 0 -1.265625 -0.40625q-1.0 -0.421875 -2.0 -0.421875q-4.796875 0 -10.0625 2.8125q-10.515625 5.625 -24.109375 20.125q-3.90625 4.171875 -9.125 10.34375q-5.203125 6.15625 -11.71875 14.40625q-10.34375 13.0625 -12.421875 14.234375q-3.90625 2.265625 -5.859375 3.21875q-1.9375 0.953125 -2.21875 0.953125zm38.537216 -5.984375q-2.1875 0 -4.359375 -1.53125q-2.171875 -1.546875 -2.4375 -3.640625q-0.90625 -6.96875 8.78125 -16.578125q9.609375 -9.609375 17.328125 -9.609375q2.078125 0 3.25 0.984375q0.640625 0.640625 0.953125 1.734375q0.328125 1.078125 0.5 1.078125q0.359375 0 0.625 -0.125q0.28125 -0.140625 0.640625 -0.140625q1.09375 0 1.90625 0.8125q0.828125 0.8125 0.90625 1.453125q0.09375 0.171875 -5.796875 8.96875q-5.890625 8.609375 -5.34375 11.703125q0.453125 2.078125 1.984375 2.078125q4.71875 0 17.234375 -15.59375q0.265625 -0.359375 0.546875 -0.359375q0.453125 0 0.453125 0.640625q0 0.71875 -0.828125 1.8125q-11.515625 15.5 -17.671875 15.5q-0.8125 0 -1.546875 -0.28125q-3.984375 -1.53125 -3.984375 -5.984375q0 -1.53125 0.359375 -3.078125l-5.609375 5.4375q-2.546875 2.546875 -4.59375 3.640625q-2.03125 1.078125 -3.296875 1.078125zm-0.8125 -2.0q5.25 0 14.3125 -11.5l9.609375 -13.25q-0.71875 -1.265625 -2.359375 -1.265625q-5.53125 0 -14.953125 8.890625q-9.796875 9.0625 -8.796875 14.953125q0.453125 2.171875 2.1875 2.171875zm38.975388 1.734375q-2.625 0 -4.890625 -1.3125q-2.265625 -1.328125 -2.265625 -4.40625q0 -4.265625 3.03125 -10.15625q3.03125 -5.890625 6.9375 -12.234375q10.609375 -17.21875 15.046875 -17.21875q0.90625 0 1.859375 0.6875q0.953125 0.671875 1.046875 1.484375l-6.359375 8.515625q-3.703125 4.984375 -6.703125 9.203125q-2.984375 4.21875 -5.171875 7.578125q-1.078125 1.71875 -2.4375 3.890625q-1.359375 2.171875 -2.40625 4.484375q-1.046875 2.3125 -1.046875 4.671875q0 1.09375 0.640625 1.953125q0.640625 0.859375 2.265625 0.859375q2.90625 0 7.609375 -3.125q4.71875 -3.125 9.34375 -8.65625q0.453125 -0.546875 1.0 -1.0q0.546875 -0.453125 0.90625 -0.453125q0.453125 0 0.453125 0.546875q0 0.265625 -0.59375 1.046875q-0.59375 0.765625 -0.953125 1.21875l-2.171875 2.4375q-1.8125 2.0 -4.3125 4.359375q-2.484375 2.359375 -5.25 4.0q-2.765625 1.625 -5.578125 1.625zm19.763855 0.984375q-2.90625 0 -5.25 -1.84375q-2.359375 -1.859375 -2.359375 -4.953125q0 -6.4375 7.875 -14.6875q8.078125 -8.328125 14.421875 -8.328125q2.078125 0 3.390625 1.140625q1.328125 1.125 1.328125 2.75q0 5.078125 -8.078125 9.96875q-7.15625 4.359375 -12.0625 4.359375q-0.71875 0 -1.265625 -0.1875q-1.359375 2.453125 -1.359375 5.171875q0 4.71875 4.453125 4.71875q4.53125 0 11.6875 -6.078125q5.53125 -4.4375 9.421875 -9.4375q0.828125 -1.078125 1.453125 -1.078125q0.546875 0 0.546875 0.546875q0 0.53125 -0.71875 1.53125q-2.546875 3.359375 -5.453125 6.171875q-2.890625 2.8125 -6.25 5.171875q-6.984375 5.0625 -11.78125 5.0625zm0.546875 -13.59375q3.4375 0 8.96875 -3.4375q1.8125 -1.28125 3.578125 -2.859375q1.765625 -1.59375 2.890625 -3.21875q1.140625 -1.640625 1.140625 -2.90625q0 -1.171875 -1.890625 -1.171875q-2.71875 0 -7.625 4.078125q-2.359375 2.0 -4.53125 4.359375q-2.171875 2.34375 -3.71875 4.984375q0.546875 0.171875 1.1875 0.171875zm41.251785 12.609375q-2.453125 0 -3.453125 -1.40625q-1.0 -1.40625 -1.0 -3.5q0 -5.25 3.625 -11.234375l5.8125 -9.4375q-6.171875 4.546875 -12.25 11.34375q-1.625 1.8125 -3.671875 4.265625q-2.03125 2.4375 -4.484375 5.609375q-3.265625 4.265625 -3.890625 4.265625q-1.28125 0 -2.09375 -1.125q-0.8125 -1.140625 -0.8125 -2.046875q0 -0.734375 0.453125 -2.671875q0.453125 -1.953125 1.09375 -3.40625q0.625 -1.546875 1.296875 -3.03125q0.6875 -1.5 1.328125 -2.953125l-5.4375 5.71875q-0.1875 0.171875 -1.09375 1.078125q-0.90625 0.90625 -1.453125 0.90625q-0.453125 0 -0.453125 -0.625q0 -0.1875 0.140625 -0.5q0.140625 -0.328125 0.59375 -0.78125q1.359375 -1.359375 2.796875 -2.890625q1.453125 -1.546875 3.0 -3.546875q0.8125 -0.984375 2.4375 -3.015625q1.640625 -2.046875 3.59375 -4.40625q1.953125 -2.359375 3.671875 -4.359375q0.453125 -0.625 1.0 -0.84375q0.546875 -0.234375 0.71875 -0.234375q2.453125 0 2.453125 1.890625q0 0.546875 -0.28125 1.09375q-8.15625 11.234375 -9.78125 17.140625q10.515625 -10.515625 16.90625 -15.8125q6.390625 -5.3125 9.109375 -5.3125q1.453125 0 2.21875 0.453125q0.765625 0.453125 0.765625 1.71875q0 0.453125 -0.078125 0.71875q-0.28125 0.640625 -3.71875 5.078125q-2.09375 2.546875 -3.6875 4.640625q-1.578125 2.078125 -2.578125 3.609375q-1.625 2.546875 -2.4375 4.765625q-0.8125 2.21875 -0.8125 3.765625q0 0.625 0.171875 1.53125q0.1875 0.90625 1.09375 0.90625q2.078125 0 6.515625 -3.625q2.09375 -1.8125 3.90625 -3.671875q1.8125 -1.859375 3.4375 -3.671875q0.375 -0.359375 1.1875 -1.390625q0.8125 -1.046875 1.0 -1.046875q0.359375 0 0.359375 0.71875q0 0.359375 -0.40625 1.234375q-0.40625 0.859375 -0.859375 1.3125q-1.0 1.171875 -2.953125 3.265625q-1.953125 2.078125 -4.359375 4.25q-2.390625 2.171875 -4.65625 3.71875q-2.265625 1.546875 -3.984375 1.546875zm20.30011 0.984375q-2.90625 0 -5.265625 -1.84375q-2.34375 -1.859375 -2.34375 -4.953125q0 -6.4375 7.875 -14.6875q8.078125 -8.328125 14.421875 -8.328125q2.171875 0 3.4375 1.140625q1.28125 1.125 1.28125 2.75q0 2.265625 -1.09375 4.171875q-1.265625 2.359375 -3.625 2.359375q-2.359375 0 -2.359375 -1.453125q0 -1.0 1.171875 -3.0q1.28125 -2.078125 1.28125 -2.171875q0 -0.171875 -0.28125 -0.171875q-2.53125 0.265625 -7.0625 3.71875q-2.0 1.53125 -3.5 2.890625q-1.484375 1.359375 -2.390625 2.625l-3.546875 5.171875q-0.546875 0.8125 -1.140625 2.8125q-0.578125 2.0 -0.578125 2.984375q0 1.828125 1.21875 3.0q1.234375 1.171875 3.140625 1.171875q4.53125 0 11.953125 -5.890625q5.984375 -4.703125 9.609375 -9.515625q0.453125 -0.546875 1.09375 -0.546875q0.640625 0 0.640625 0.359375q0 0.28125 -0.453125 0.90625q-4.984375 6.625 -11.703125 11.4375q-7.15625 5.0625 -11.78125 5.0625zm38.796356 -32.359375q-1.53125 0 -2.671875 -1.0q-1.125 -1.0 -1.125 -2.265625q0 -2.53125 3.4375 -2.53125q1.265625 0 2.53125 0.859375q1.2812347 0.859375 1.2812347 2.125q0 1.09375 -1.1874847 1.953125q-1.171875 0.859375 -2.265625 0.859375zm-16.765625 32.1875q-2.0 0 -3.3125 -1.3125q-1.3125 -1.3125 -1.3125 -4.671875q0 -1.90625 0.859375 -4.390625q0.859375 -2.5 2.171875 -5.03125q1.3125 -2.546875 2.59375 -4.546875q5.078125 -8.25 8.328125 -8.328125q0.828125 0 2.0 0.6875q1.1875 0.671875 1.1875 1.484375q0 0 -6.890625 8.875q-6.8125 8.796875 -6.8125 12.515625q0 2.90625 2.265625 2.90625q1.453125 0 3.765625 -1.21875q2.3125 -1.234375 4.84375 -3.140625q2.546875 -1.90625 4.859375 -4.078125q2.3125 -2.171875 3.765625 -3.984375q0.90625 -1.1875 1.5781097 -1.640625q0.6875 -0.453125 0.875 -0.453125q0.359375 0 0.359375 0.546875q0 0.453125 -1.046875 1.8125q-1.0468597 1.359375 -2.8593597 3.171875q-2.171875 2.1875 -4.8125 4.734375q-2.625 2.53125 -5.703125 4.296875q-3.078125 1.765625 -6.703125 1.765625zm23.300827 -0.546875q-2.1875 0 -4.359375 -1.53125q-2.171875 -1.546875 -2.4375 -3.640625q-0.90625 -6.96875 8.78125 -16.578125q9.609375 -9.609375 17.328125 -9.609375q2.078125 0 3.25 0.984375q0.640625 0.640625 0.953125 1.734375q0.328125 1.078125 0.5 1.078125q0.359375 0 0.625 -0.125q0.28125 -0.140625 0.640625 -0.140625q1.09375 0 1.90625 0.8125q0.828125 0.8125 0.90625 1.453125q0.09375 0.171875 -5.796875 8.96875q-5.890625 8.609375 -5.34375 11.703125q0.453125 2.078125 1.984375 2.078125q4.71875 0 17.234375 -15.59375q0.265625 -0.359375 0.546875 -0.359375q0.453125 0 0.453125 0.640625q0 0.71875 -0.828125 1.8125q-11.515625 15.5 -17.671875 15.5q-0.8125 0 -1.546875 -0.28125q-3.984375 -1.53125 -3.984375 -5.984375q0 -1.53125 0.359375 -3.078125l-5.609375 5.4375q-2.546875 2.546875 -4.59375 3.640625q-2.03125 1.078125 -3.296875 1.078125zm-0.8125 -2.0q5.25 0 14.3125 -11.5l9.609375 -13.25q-0.71875 -1.265625 -2.359375 -1.265625q-5.53125 0 -14.953125 8.890625q-9.796875 9.0625 -8.796875 14.953125q0.453125 2.171875 2.1875 2.171875zm55.209778 1.734375q-2.453125 0 -3.453125 -1.40625q-1.0 -1.40625 -1.0 -3.5q0 -5.25 3.625 -11.234375l5.8125 -9.4375q-6.171875 4.546875 -12.25 11.34375q-1.625 1.8125 -3.671875 4.265625q-2.03125 2.4375 -4.484375 5.609375q-3.265625 4.265625 -3.890625 4.265625q-1.28125 0 -2.09375 -1.125q-0.8125 -1.140625 -0.8125 -2.046875q0 -0.734375 0.453125 -2.671875q0.453125 -1.953125 1.09375 -3.40625q0.625 -1.546875 1.296875 -3.03125q0.6875 -1.5 1.328125 -2.953125l-5.4375 5.71875q-0.1875 0.171875 -1.09375 1.078125q-0.90625 0.90625 -1.453125 0.90625q-0.453125 0 -0.453125 -0.625q0 -0.1875 0.140625 -0.5q0.140625 -0.328125 0.59375 -0.78125q1.359375 -1.359375 2.796875 -2.890625q1.453125 -1.546875 3.0 -3.546875q0.8125 -0.984375 2.4375 -3.015625q1.640625 -2.046875 3.59375 -4.40625q1.953125 -2.359375 3.671875 -4.359375q0.453125 -0.625 1.0 -0.84375q0.546875 -0.234375 0.71875 -0.234375q2.453125 0 2.453125 1.890625q0 0.546875 -0.28125 1.09375q-8.15625 11.234375 -9.78125 17.140625q10.515625 -10.515625 16.90625 -15.8125q6.390625 -5.3125 9.109375 -5.3125q1.453125 0 2.21875 0.453125q0.765625 0.453125 0.765625 1.71875q0 0.453125 -0.078125 0.71875q-0.28125 0.640625 -3.71875 5.078125q-2.09375 2.546875 -3.6875 4.640625q-1.578125 2.078125 -2.578125 3.609375q-1.625 2.546875 -2.4375 4.765625q-0.8125 2.21875 -0.8125 3.765625q0 0.625 0.171875 1.53125q0.1875 0.90625 1.09375 0.90625q2.078125 0 6.515625 -3.625q2.09375 -1.8125 3.90625 -3.671875q1.8125 -1.859375 3.4375 -3.671875q0.375 -0.359375 1.1875 -1.390625q0.8125 -1.046875 1.0 -1.046875q0.359375 0 0.359375 0.71875q0 0.359375 -0.40625 1.234375q-0.40625 0.859375 -0.859375 1.3125q-1.0 1.171875 -2.953125 3.265625q-1.953125 2.078125 -4.359375 4.25q-2.390625 2.171875 -4.65625 3.71875q-2.265625 1.546875 -3.984375 1.546875zm19.48761 0.265625q-2.1875 0 -4.359375 -1.53125q-2.171875 -1.546875 -2.4375 -3.640625q-0.90625 -6.96875 8.78125 -16.578125q9.609375 -9.609375 17.328125 -9.609375q2.078125 0 3.25 0.984375q0.640625 0.640625 0.953125 1.734375q0.328125 1.078125 0.5 1.078125q0.359375 0 0.625 -0.125q0.28125 -0.140625 0.640625 -0.140625q1.09375 0 1.90625 0.8125q0.828125 0.8125 0.90625 1.453125q0.09375 0.171875 -5.796875 8.96875q-5.890625 8.609375 -5.34375 11.703125q0.453125 2.078125 1.984375 2.078125q4.71875 0 17.234375 -15.59375q0.265625 -0.359375 0.546875 -0.359375q0.453125 0 0.453125 0.640625q0 0.71875 -0.828125 1.8125q-11.515625 15.5 -17.671875 15.5q-0.8125 0 -1.546875 -0.28125q-3.984375 -1.53125 -3.984375 -5.984375q0 -1.53125 0.359375 -3.078125l-5.609375 5.4375q-2.546875 2.546875 -4.59375 3.640625q-2.03125 1.078125 -3.296875 1.078125zm-0.8125 -2.0q5.25 0 14.3125 -11.5l9.609375 -13.25q-0.71875 -1.265625 -2.359375 -1.265625q-5.53125 0 -14.953125 8.890625q-9.796875 9.0625 -8.796875 14.953125q0.453125 2.171875 2.1875 2.171875z" fill-rule="nonzero"/></g></svg>